<svg width="675" height="613" viewBox="0 0 675 613" fill="none" xmlns="http://www.w3.org/2000/svg">
<g filter="url(#filter0_d_13_278)">
<rect x="50" y="73.3943" width="417.082" height="415.533" rx="7.74286" fill="#FAFAFA" fill-opacity="0.4"/>
<rect x="79.2913" y="51.1074" width="461.774" height="460.06" rx="8.57254" fill="#FAFAFA" fill-opacity="0.8"/>
<rect x="110.493" y="25" width="514.507" height="512.597" rx="9.5515" fill="#FAFAFA"/>
<path d="M144.9 166.797V144.568H159.878V148.443H149.6V153.74H159.108V157.615H149.6V162.922H159.922V166.797H144.9ZM163.528 166.797V150.126H167.935V153.067H168.13C168.477 152.09 169.056 151.32 169.867 150.755C170.677 150.191 171.647 149.909 172.775 149.909C173.919 149.909 174.892 150.194 175.695 150.766C176.498 151.33 177.034 152.097 177.302 153.067H177.475C177.815 152.112 178.43 151.349 179.32 150.777C180.218 150.198 181.278 149.909 182.501 149.909C184.056 149.909 185.319 150.404 186.289 151.396C187.266 152.38 187.754 153.776 187.754 155.585V166.797H183.141V156.497C183.141 155.571 182.895 154.876 182.403 154.413C181.911 153.95 181.296 153.718 180.558 153.718C179.718 153.718 179.064 153.986 178.593 154.522C178.123 155.05 177.888 155.748 177.888 156.616V166.797H173.405V156.399C173.405 155.582 173.17 154.93 172.7 154.446C172.236 153.961 171.625 153.718 170.865 153.718C170.351 153.718 169.888 153.849 169.476 154.109C169.071 154.362 168.749 154.721 168.51 155.184C168.271 155.639 168.152 156.175 168.152 156.79V166.797H163.528ZM209.497 173.049V164.127H209.356C209.139 164.59 208.831 165.05 208.434 165.506C208.043 165.954 207.533 166.327 206.903 166.624C206.281 166.92 205.521 167.069 204.624 167.069C203.357 167.069 202.211 166.743 201.183 166.092C200.163 165.433 199.352 164.467 198.752 163.194C198.158 161.913 197.862 160.343 197.862 158.483C197.862 156.573 198.169 154.985 198.784 153.718C199.399 152.445 200.217 151.493 201.237 150.864C202.265 150.227 203.39 149.909 204.613 149.909C205.546 149.909 206.324 150.068 206.947 150.386C207.576 150.697 208.083 151.088 208.466 151.558C208.857 152.021 209.153 152.477 209.356 152.926H209.551V150.126H214.11V173.049H209.497ZM206.089 163.389C206.834 163.389 207.464 163.187 207.978 162.781C208.499 162.369 208.897 161.794 209.172 161.056C209.454 160.318 209.595 159.453 209.595 158.462C209.595 157.47 209.457 156.609 209.182 155.878C208.907 155.147 208.509 154.583 207.988 154.185C207.468 153.787 206.834 153.588 206.089 153.588C205.329 153.588 204.689 153.794 204.168 154.207C203.647 154.619 203.253 155.191 202.985 155.922C202.717 156.653 202.583 157.499 202.583 158.462C202.583 159.431 202.717 160.289 202.985 161.034C203.26 161.772 203.654 162.351 204.168 162.771C204.689 163.183 205.329 163.389 206.089 163.389ZM228.513 159.699V150.126H233.137V166.797H228.698V163.769H228.524C228.148 164.746 227.522 165.531 226.646 166.124C225.778 166.718 224.718 167.014 223.466 167.014C222.352 167.014 221.371 166.761 220.525 166.255C219.678 165.748 219.016 165.028 218.539 164.095C218.068 163.161 217.829 162.043 217.822 160.741V150.126H222.446V159.916C222.453 160.9 222.717 161.678 223.238 162.25C223.759 162.821 224.458 163.107 225.333 163.107C225.89 163.107 226.411 162.98 226.896 162.727C227.381 162.467 227.772 162.083 228.068 161.577C228.372 161.07 228.521 160.444 228.513 159.699ZM241.59 167.112C240.526 167.112 239.578 166.928 238.746 166.559C237.914 166.182 237.255 165.629 236.771 164.898C236.293 164.16 236.054 163.241 236.054 162.141C236.054 161.215 236.224 160.437 236.564 159.807C236.904 159.178 237.367 158.671 237.954 158.288C238.54 157.904 239.205 157.615 239.951 157.42C240.703 157.224 241.492 157.087 242.317 157.007C243.287 156.906 244.068 156.812 244.661 156.725C245.255 156.631 245.685 156.493 245.953 156.312C246.221 156.132 246.355 155.864 246.355 155.509V155.444C246.355 154.757 246.137 154.225 245.703 153.849C245.276 153.472 244.669 153.284 243.88 153.284C243.048 153.284 242.386 153.469 241.894 153.838C241.402 154.2 241.076 154.655 240.917 155.205L236.64 154.858C236.857 153.845 237.284 152.969 237.921 152.231C238.558 151.486 239.379 150.914 240.385 150.516C241.398 150.111 242.57 149.909 243.902 149.909C244.828 149.909 245.714 150.017 246.561 150.234C247.415 150.451 248.171 150.788 248.829 151.244C249.495 151.699 250.02 152.286 250.403 153.002C250.787 153.711 250.978 154.561 250.978 155.553V166.797H246.593V164.485H246.463C246.195 165.006 245.837 165.466 245.389 165.864C244.94 166.255 244.401 166.562 243.771 166.787C243.142 167.004 242.415 167.112 241.59 167.112ZM242.914 163.921C243.594 163.921 244.195 163.787 244.716 163.519C245.237 163.244 245.645 162.875 245.942 162.412C246.239 161.949 246.387 161.425 246.387 160.839V159.069C246.242 159.163 246.043 159.25 245.79 159.33C245.544 159.402 245.266 159.471 244.954 159.536C244.643 159.594 244.332 159.648 244.021 159.699C243.71 159.742 243.428 159.782 243.174 159.818C242.632 159.898 242.158 160.024 241.752 160.198C241.347 160.372 241.033 160.607 240.808 160.904C240.584 161.193 240.472 161.555 240.472 161.989C240.472 162.619 240.7 163.1 241.156 163.433C241.619 163.758 242.205 163.921 242.914 163.921ZM259.189 144.568V166.797H254.566V144.568H259.189ZM277.565 167.123C275.85 167.123 274.374 166.776 273.137 166.081C271.907 165.379 270.959 164.388 270.293 163.107C269.627 161.819 269.294 160.296 269.294 158.537C269.294 156.823 269.627 155.317 270.293 154.022C270.959 152.727 271.896 151.718 273.104 150.994C274.32 150.27 275.745 149.909 277.381 149.909C278.481 149.909 279.504 150.086 280.452 150.44C281.407 150.788 282.24 151.312 282.949 152.014C283.665 152.716 284.222 153.599 284.62 154.663C285.018 155.719 285.217 156.956 285.217 158.375V159.645H271.14V156.779H280.865C280.865 156.113 280.72 155.524 280.431 155.01C280.141 154.496 279.74 154.095 279.226 153.805C278.719 153.508 278.13 153.36 277.457 153.36C276.755 153.36 276.132 153.523 275.59 153.849C275.054 154.167 274.635 154.597 274.331 155.14C274.027 155.676 273.871 156.273 273.864 156.931V159.655C273.864 160.48 274.016 161.193 274.32 161.794C274.631 162.394 275.069 162.857 275.633 163.183C276.198 163.509 276.867 163.671 277.641 163.671C278.155 163.671 278.625 163.599 279.052 163.454C279.479 163.31 279.844 163.093 280.148 162.803C280.452 162.514 280.684 162.159 280.843 161.739L285.12 162.022C284.902 163.049 284.457 163.946 283.784 164.713C283.119 165.473 282.258 166.067 281.201 166.493C280.152 166.913 278.94 167.123 277.565 167.123ZM298.622 155.835V159.503H288.484V155.835H298.622ZM302.562 166.797V150.126H306.969V153.067H307.164C307.511 152.09 308.09 151.32 308.901 150.755C309.711 150.191 310.681 149.909 311.809 149.909C312.953 149.909 313.926 150.194 314.729 150.766C315.532 151.33 316.068 152.097 316.336 153.067H316.509C316.849 152.112 317.464 151.349 318.354 150.777C319.252 150.198 320.312 149.909 321.535 149.909C323.09 149.909 324.353 150.404 325.323 151.396C326.3 152.38 326.788 153.776 326.788 155.585V166.797H322.175V156.497C322.175 155.571 321.929 154.876 321.437 154.413C320.945 153.95 320.33 153.718 319.592 153.718C318.752 153.718 318.098 153.986 317.627 154.522C317.157 155.05 316.922 155.748 316.922 156.616V166.797H312.439V156.399C312.439 155.582 312.204 154.93 311.733 154.446C311.27 153.961 310.659 153.718 309.899 153.718C309.385 153.718 308.922 153.849 308.51 154.109C308.105 154.362 307.783 154.721 307.544 155.184C307.305 155.639 307.186 156.175 307.186 156.79V166.797H302.562ZM335.194 167.112C334.131 167.112 333.183 166.928 332.351 166.559C331.518 166.182 330.86 165.629 330.375 164.898C329.898 164.16 329.659 163.241 329.659 162.141C329.659 161.215 329.829 160.437 330.169 159.807C330.509 159.178 330.972 158.671 331.558 158.288C332.144 157.904 332.81 157.615 333.555 157.42C334.308 157.224 335.097 157.087 335.922 157.007C336.891 156.906 337.673 156.812 338.266 156.725C338.859 156.631 339.29 156.493 339.558 156.312C339.825 156.132 339.959 155.864 339.959 155.509V155.444C339.959 154.757 339.742 154.225 339.308 153.849C338.881 153.472 338.273 153.284 337.485 153.284C336.652 153.284 335.99 153.469 335.498 153.838C335.006 154.2 334.681 154.655 334.521 155.205L330.245 154.858C330.462 153.845 330.889 152.969 331.526 152.231C332.162 151.486 332.984 150.914 333.99 150.516C335.003 150.111 336.175 149.909 337.506 149.909C338.432 149.909 339.319 150.017 340.165 150.234C341.019 150.451 341.775 150.788 342.434 151.244C343.1 151.699 343.624 152.286 344.008 153.002C344.391 153.711 344.583 154.561 344.583 155.553V166.797H340.198V164.485H340.068C339.8 165.006 339.442 165.466 338.993 165.864C338.545 166.255 338.006 166.562 337.376 166.787C336.746 167.004 336.019 167.112 335.194 167.112ZM336.519 163.921C337.199 163.921 337.799 163.787 338.32 163.519C338.841 163.244 339.25 162.875 339.547 162.412C339.843 161.949 339.992 161.425 339.992 160.839V159.069C339.847 159.163 339.648 159.25 339.395 159.33C339.149 159.402 338.87 159.471 338.559 159.536C338.248 159.594 337.937 159.648 337.626 159.699C337.314 159.742 337.032 159.782 336.779 159.818C336.236 159.898 335.762 160.024 335.357 160.198C334.952 160.372 334.637 160.607 334.413 160.904C334.189 161.193 334.076 161.555 334.076 161.989C334.076 162.619 334.304 163.1 334.76 163.433C335.223 163.758 335.809 163.921 336.519 163.921ZM348.17 166.797V150.126H352.794V166.797H348.17ZM350.493 147.977C349.806 147.977 349.216 147.749 348.724 147.293C348.239 146.83 347.997 146.276 347.997 145.632C347.997 144.995 348.239 144.449 348.724 143.993C349.216 143.53 349.806 143.299 350.493 143.299C351.18 143.299 351.767 143.53 352.251 143.993C352.743 144.449 352.989 144.995 352.989 145.632C352.989 146.276 352.743 146.83 352.251 147.293C351.767 147.749 351.18 147.977 350.493 147.977ZM361.122 144.568V166.797H356.498V144.568H361.122ZM371.9 173.049V150.126H376.458V152.926H376.665C376.867 152.477 377.16 152.021 377.544 151.558C377.935 151.088 378.441 150.697 379.063 150.386C379.693 150.068 380.474 149.909 381.408 149.909C382.623 149.909 383.745 150.227 384.773 150.864C385.8 151.493 386.621 152.445 387.236 153.718C387.851 154.985 388.159 156.573 388.159 158.483C388.159 160.343 387.859 161.913 387.258 163.194C386.665 164.467 385.854 165.433 384.827 166.092C383.807 166.743 382.663 167.069 381.397 167.069C380.5 167.069 379.736 166.92 379.107 166.624C378.484 166.327 377.974 165.954 377.576 165.506C377.178 165.05 376.874 164.59 376.665 164.127H376.524V173.049H371.9ZM376.426 158.462C376.426 159.453 376.563 160.318 376.838 161.056C377.113 161.794 377.511 162.369 378.032 162.781C378.553 163.187 379.186 163.389 379.932 163.389C380.684 163.389 381.321 163.183 381.842 162.771C382.363 162.351 382.757 161.772 383.025 161.034C383.3 160.289 383.438 159.431 383.438 158.462C383.438 157.499 383.304 156.653 383.036 155.922C382.768 155.191 382.374 154.619 381.853 154.207C381.332 153.794 380.691 153.588 379.932 153.588C379.179 153.588 378.542 153.787 378.021 154.185C377.508 154.583 377.113 155.147 376.838 155.878C376.563 156.609 376.426 157.47 376.426 158.462ZM398.774 167.123C397.088 167.123 395.63 166.765 394.4 166.048C393.177 165.325 392.233 164.319 391.567 163.031C390.901 161.736 390.569 160.234 390.569 158.527C390.569 156.804 390.901 155.299 391.567 154.011C392.233 152.716 393.177 151.71 394.4 150.994C395.63 150.27 397.088 149.909 398.774 149.909C400.46 149.909 401.915 150.27 403.137 150.994C404.368 151.71 405.316 152.716 405.981 154.011C406.647 155.299 406.98 156.804 406.98 158.527C406.98 160.234 406.647 161.736 405.981 163.031C405.316 164.319 404.368 165.325 403.137 166.048C401.915 166.765 400.46 167.123 398.774 167.123ZM398.796 163.541C399.563 163.541 400.203 163.324 400.717 162.89C401.231 162.449 401.618 161.848 401.878 161.088C402.146 160.328 402.28 159.464 402.28 158.494C402.28 157.524 402.146 156.66 401.878 155.9C401.618 155.14 401.231 154.54 400.717 154.098C400.203 153.657 399.563 153.436 398.796 153.436C398.022 153.436 397.37 153.657 396.842 154.098C396.321 154.54 395.927 155.14 395.659 155.9C395.399 156.66 395.268 157.524 395.268 158.494C395.268 159.464 395.399 160.328 395.659 161.088C395.927 161.848 396.321 162.449 396.842 162.89C397.37 163.324 398.022 163.541 398.796 163.541ZM416.13 167.069C414.863 167.069 413.716 166.743 412.689 166.092C411.669 165.433 410.858 164.467 410.258 163.194C409.664 161.913 409.368 160.343 409.368 158.483C409.368 156.573 409.675 154.985 410.29 153.718C410.905 152.445 411.723 151.493 412.743 150.864C413.771 150.227 414.896 149.909 416.119 149.909C417.052 149.909 417.83 150.068 418.452 150.386C419.082 150.697 419.588 151.088 419.972 151.558C420.363 152.021 420.659 152.477 420.862 152.926H421.003V144.568H425.616V166.797H421.057V164.127H420.862C420.645 164.59 420.337 165.05 419.939 165.506C419.549 165.954 419.039 166.327 418.409 166.624C417.787 166.92 417.027 167.069 416.13 167.069ZM417.595 163.389C418.34 163.389 418.97 163.187 419.484 162.781C420.005 162.369 420.403 161.794 420.678 161.056C420.96 160.318 421.101 159.453 421.101 158.462C421.101 157.47 420.963 156.609 420.688 155.878C420.413 155.147 420.015 154.583 419.494 154.185C418.973 153.787 418.34 153.588 417.595 153.588C416.835 153.588 416.195 153.794 415.674 154.207C415.153 154.619 414.758 155.191 414.491 155.922C414.223 156.653 414.089 157.499 414.089 158.462C414.089 159.431 414.223 160.289 414.491 161.034C414.766 161.772 415.16 162.351 415.674 162.771C416.195 163.183 416.835 163.389 417.595 163.389ZM437.015 167.123C435.301 167.123 433.824 166.776 432.587 166.081C431.357 165.379 430.409 164.388 429.743 163.107C429.078 161.819 428.745 160.296 428.745 158.537C428.745 156.823 429.078 155.317 429.743 154.022C430.409 152.727 431.346 151.718 432.554 150.994C433.77 150.27 435.196 149.909 436.831 149.909C437.931 149.909 438.955 150.086 439.903 150.44C440.858 150.788 441.69 151.312 442.399 152.014C443.115 152.716 443.673 153.599 444.071 154.663C444.468 155.719 444.667 156.956 444.667 158.375V159.645H430.59V156.779H440.315C440.315 156.113 440.17 155.524 439.881 155.01C439.591 154.496 439.19 154.095 438.676 153.805C438.17 153.508 437.58 153.36 436.907 153.36C436.205 153.36 435.583 153.523 435.04 153.849C434.505 154.167 434.085 154.597 433.781 155.14C433.477 155.676 433.321 156.273 433.314 156.931V159.655C433.314 160.48 433.466 161.193 433.77 161.794C434.081 162.394 434.519 162.857 435.083 163.183C435.648 163.509 436.317 163.671 437.091 163.671C437.605 163.671 438.076 163.599 438.502 163.454C438.929 163.31 439.295 163.093 439.599 162.803C439.903 162.514 440.134 162.159 440.293 161.739L444.57 162.022C444.353 163.049 443.908 163.946 443.235 164.713C442.569 165.473 441.708 166.067 440.652 166.493C439.602 166.913 438.39 167.123 437.015 167.123ZM447.685 166.797V150.126H452.092V153.067H452.287C452.634 152.09 453.213 151.32 454.024 150.755C454.834 150.191 455.804 149.909 456.932 149.909C458.076 149.909 459.049 150.194 459.852 150.766C460.655 151.33 461.191 152.097 461.459 153.067H461.632C461.972 152.112 462.587 151.349 463.477 150.777C464.375 150.198 465.435 149.909 466.658 149.909C468.213 149.909 469.476 150.404 470.446 151.396C471.423 152.38 471.911 153.776 471.911 155.585V166.797H467.298V156.497C467.298 155.571 467.052 154.876 466.56 154.413C466.068 153.95 465.453 153.718 464.715 153.718C463.875 153.718 463.221 153.986 462.75 154.522C462.28 155.05 462.045 155.748 462.045 156.616V166.797H457.562V156.399C457.562 155.582 457.327 154.93 456.857 154.446C456.393 153.961 455.782 153.718 455.022 153.718C454.508 153.718 454.045 153.849 453.633 154.109C453.228 154.362 452.906 154.721 452.667 155.184C452.428 155.639 452.309 156.175 452.309 156.79V166.797H447.685ZM483.096 167.123C481.41 167.123 479.952 166.765 478.722 166.048C477.499 165.325 476.555 164.319 475.889 163.031C475.223 161.736 474.89 160.234 474.89 158.527C474.89 156.804 475.223 155.299 475.889 154.011C476.555 152.716 477.499 151.71 478.722 150.994C479.952 150.27 481.41 149.909 483.096 149.909C484.782 149.909 486.236 150.27 487.459 150.994C488.689 151.71 489.637 152.716 490.303 154.011C490.969 155.299 491.302 156.804 491.302 158.527C491.302 160.234 490.969 161.736 490.303 163.031C489.637 164.319 488.689 165.325 487.459 166.048C486.236 166.765 484.782 167.123 483.096 167.123ZM483.118 163.541C483.885 163.541 484.525 163.324 485.039 162.89C485.553 162.449 485.94 161.848 486.2 161.088C486.468 160.328 486.602 159.464 486.602 158.494C486.602 157.524 486.468 156.66 486.2 155.9C485.94 155.14 485.553 154.54 485.039 154.098C484.525 153.657 483.885 153.436 483.118 153.436C482.343 153.436 481.692 153.657 481.164 154.098C480.643 154.54 480.249 155.14 479.981 155.9C479.72 156.66 479.59 157.524 479.59 158.494C479.59 159.464 479.72 160.328 479.981 161.088C480.249 161.848 480.643 162.449 481.164 162.89C481.692 163.324 482.343 163.541 483.118 163.541ZM508.18 154.88L503.946 155.14C503.874 154.778 503.719 154.453 503.48 154.163C503.241 153.867 502.926 153.631 502.535 153.458C502.152 153.277 501.692 153.186 501.157 153.186C500.441 153.186 499.836 153.338 499.344 153.642C498.852 153.939 498.606 154.337 498.606 154.836C498.606 155.234 498.765 155.571 499.084 155.846C499.402 156.121 499.949 156.341 500.723 156.508L503.74 157.116C505.361 157.448 506.569 157.984 507.365 158.722C508.161 159.46 508.559 160.43 508.559 161.631C508.559 162.724 508.237 163.682 507.593 164.507C506.957 165.332 506.081 165.976 504.967 166.439C503.86 166.895 502.582 167.123 501.135 167.123C498.928 167.123 497.17 166.663 495.86 165.745C494.558 164.818 493.794 163.559 493.57 161.967L498.118 161.729C498.255 162.402 498.588 162.915 499.116 163.27C499.645 163.617 500.321 163.791 501.146 163.791C501.957 163.791 502.608 163.635 503.1 163.324C503.599 163.006 503.852 162.597 503.86 162.098C503.852 161.678 503.675 161.334 503.328 161.066C502.98 160.791 502.445 160.582 501.721 160.437L498.834 159.862C497.206 159.536 495.994 158.972 495.198 158.168C494.409 157.365 494.015 156.341 494.015 155.097C494.015 154.026 494.305 153.103 494.883 152.329C495.47 151.555 496.291 150.958 497.347 150.538C498.411 150.118 499.656 149.909 501.081 149.909C503.187 149.909 504.844 150.354 506.052 151.244C507.268 152.134 507.977 153.346 508.18 154.88ZM527.51 150.126V153.599H517.221V150.126H527.51ZM519.576 166.797V148.921C519.576 147.712 519.811 146.71 520.282 145.914C520.759 145.118 521.411 144.521 522.235 144.123C523.06 143.725 523.997 143.526 525.047 143.526C525.756 143.526 526.403 143.581 526.989 143.689C527.583 143.798 528.024 143.895 528.314 143.982L527.489 147.456C527.308 147.398 527.084 147.343 526.816 147.293C526.555 147.242 526.288 147.217 526.013 147.217C525.332 147.217 524.858 147.376 524.591 147.694C524.323 148.006 524.189 148.443 524.189 149.008V166.797H519.576ZM534.492 167.112C533.429 167.112 532.481 166.928 531.649 166.559C530.816 166.182 530.158 165.629 529.673 164.898C529.196 164.16 528.957 163.241 528.957 162.141C528.957 161.215 529.127 160.437 529.467 159.807C529.807 159.178 530.27 158.671 530.856 158.288C531.442 157.904 532.108 157.615 532.853 157.42C533.606 157.224 534.395 157.087 535.219 157.007C536.189 156.906 536.971 156.812 537.564 156.725C538.157 156.631 538.588 156.493 538.856 156.312C539.123 156.132 539.257 155.864 539.257 155.509V155.444C539.257 154.757 539.04 154.225 538.606 153.849C538.179 153.472 537.571 153.284 536.782 153.284C535.95 153.284 535.288 153.469 534.796 153.838C534.304 154.2 533.978 154.655 533.819 155.205L529.543 154.858C529.76 153.845 530.187 152.969 530.824 152.231C531.46 151.486 532.282 150.914 533.287 150.516C534.3 150.111 535.473 149.909 536.804 149.909C537.73 149.909 538.617 150.017 539.463 150.234C540.317 150.451 541.073 150.788 541.732 151.244C542.398 151.699 542.922 152.286 543.306 153.002C543.689 153.711 543.881 154.561 543.881 155.553V166.797H539.496V164.485H539.366C539.098 165.006 538.74 165.466 538.291 165.864C537.843 166.255 537.303 166.562 536.674 166.787C536.044 167.004 535.317 167.112 534.492 167.112ZM535.816 163.921C536.497 163.921 537.097 163.787 537.618 163.519C538.139 163.244 538.548 162.875 538.845 162.412C539.141 161.949 539.29 161.425 539.29 160.839V159.069C539.145 159.163 538.946 159.25 538.693 159.33C538.447 159.402 538.168 159.471 537.857 159.536C537.546 159.594 537.235 159.648 536.924 159.699C536.612 159.742 536.33 159.782 536.077 159.818C535.534 159.898 535.06 160.024 534.655 160.198C534.25 160.372 533.935 160.607 533.711 160.904C533.486 161.193 533.374 161.555 533.374 161.989C533.374 162.619 533.602 163.1 534.058 163.433C534.521 163.758 535.107 163.921 535.816 163.921ZM552.092 144.568V166.797H547.468V144.568H552.092ZM560.55 167.112C559.486 167.112 558.538 166.928 557.706 166.559C556.874 166.182 556.216 165.629 555.731 164.898C555.253 164.16 555.014 163.241 555.014 162.141C555.014 161.215 555.184 160.437 555.525 159.807C555.865 159.178 556.328 158.671 556.914 158.288C557.5 157.904 558.166 157.615 558.911 157.42C559.664 157.224 560.452 157.087 561.277 157.007C562.247 156.906 563.028 156.812 563.622 156.725C564.215 156.631 564.645 156.493 564.913 156.312C565.181 156.132 565.315 155.864 565.315 155.509V155.444C565.315 154.757 565.098 154.225 564.664 153.849C564.237 153.472 563.629 153.284 562.84 153.284C562.008 153.284 561.346 153.469 560.854 153.838C560.362 154.2 560.036 154.655 559.877 155.205L555.601 154.858C555.818 153.845 556.245 152.969 556.881 152.231C557.518 151.486 558.339 150.914 559.345 150.516C560.358 150.111 561.53 149.909 562.862 149.909C563.788 149.909 564.674 150.017 565.521 150.234C566.375 150.451 567.131 150.788 567.79 151.244C568.455 151.699 568.98 152.286 569.363 153.002C569.747 153.711 569.939 154.561 569.939 155.553V166.797H565.554V164.485H565.423C565.156 165.006 564.797 165.466 564.349 165.864C563.9 166.255 563.361 166.562 562.732 166.787C562.102 167.004 561.375 167.112 560.55 167.112ZM561.874 163.921C562.554 163.921 563.155 163.787 563.676 163.519C564.197 163.244 564.606 162.875 564.902 162.412C565.199 161.949 565.347 161.425 565.347 160.839V159.069C565.203 159.163 565.004 159.25 564.75 159.33C564.504 159.402 564.226 159.471 563.915 159.536C563.604 159.594 563.292 159.648 562.981 159.699C562.67 159.742 562.388 159.782 562.135 159.818C561.592 159.898 561.118 160.024 560.713 160.198C560.308 160.372 559.993 160.607 559.768 160.904C559.544 161.193 559.432 161.555 559.432 161.989C559.432 162.619 559.66 163.1 560.116 163.433C560.579 163.758 561.165 163.921 561.874 163.921ZM573.526 166.797V150.126H578.009V153.035H578.182C578.486 152 578.996 151.218 579.713 150.69C580.429 150.155 581.254 149.887 582.187 149.887C582.419 149.887 582.669 149.901 582.936 149.93C583.204 149.959 583.439 149.999 583.642 150.05V154.152C583.425 154.087 583.124 154.029 582.741 153.979C582.357 153.928 582.006 153.903 581.688 153.903C581.008 153.903 580.4 154.051 579.865 154.348C579.336 154.637 578.917 155.043 578.605 155.564C578.302 156.084 578.15 156.685 578.15 157.365V166.797H573.526ZM152.346 207.123C150.638 207.123 149.169 206.761 147.939 206.038C146.716 205.307 145.775 204.294 145.117 202.998C144.466 201.703 144.14 200.213 144.14 198.527C144.14 196.819 144.469 195.321 145.128 194.033C145.793 192.738 146.738 191.728 147.961 191.005C149.183 190.274 150.638 189.909 152.324 189.909C153.778 189.909 155.052 190.173 156.144 190.701C157.237 191.229 158.102 191.971 158.739 192.926C159.375 193.881 159.726 195.003 159.791 196.291H155.428C155.305 195.459 154.98 194.789 154.451 194.283C153.93 193.769 153.246 193.512 152.4 193.512C151.684 193.512 151.058 193.707 150.522 194.098C149.994 194.482 149.581 195.043 149.285 195.781C148.988 196.519 148.84 197.412 148.84 198.462C148.84 199.525 148.984 200.43 149.274 201.175C149.571 201.92 149.987 202.488 150.522 202.879C151.058 203.27 151.684 203.465 152.4 203.465C152.928 203.465 153.402 203.357 153.822 203.14C154.249 202.922 154.6 202.608 154.875 202.195C155.157 201.776 155.341 201.273 155.428 200.687H159.791C159.719 201.96 159.372 203.082 158.749 204.051C158.134 205.014 157.284 205.766 156.199 206.309C155.113 206.852 153.829 207.123 152.346 207.123ZM170.285 207.123C168.599 207.123 167.14 206.765 165.91 206.048C164.687 205.325 163.743 204.319 163.077 203.031C162.412 201.736 162.079 200.234 162.079 198.527C162.079 196.804 162.412 195.299 163.077 194.011C163.743 192.716 164.687 191.71 165.91 190.994C167.14 190.27 168.599 189.909 170.285 189.909C171.97 189.909 173.425 190.27 174.648 190.994C175.878 191.71 176.826 192.716 177.492 194.011C178.157 195.299 178.49 196.804 178.49 198.527C178.49 200.234 178.157 201.736 177.492 203.031C176.826 204.319 175.878 205.325 174.648 206.048C173.425 206.765 171.97 207.123 170.285 207.123ZM170.306 203.541C171.073 203.541 171.714 203.324 172.227 202.89C172.741 202.449 173.128 201.848 173.389 201.088C173.656 200.328 173.79 199.464 173.79 198.494C173.79 197.524 173.656 196.66 173.389 195.9C173.128 195.14 172.741 194.54 172.227 194.098C171.714 193.657 171.073 193.436 170.306 193.436C169.532 193.436 168.881 193.657 168.353 194.098C167.832 194.54 167.437 195.14 167.169 195.9C166.909 196.66 166.779 197.524 166.779 198.494C166.779 199.464 166.909 200.328 167.169 201.088C167.437 201.848 167.832 202.449 168.353 202.89C168.881 203.324 169.532 203.541 170.306 203.541ZM181.497 206.797V190.126H185.903V193.067H186.099C186.446 192.09 187.025 191.32 187.835 190.755C188.646 190.191 189.615 189.909 190.744 189.909C191.888 189.909 192.861 190.194 193.664 190.766C194.467 191.33 195.003 192.097 195.27 193.067H195.444C195.784 192.112 196.399 191.349 197.289 190.777C198.186 190.198 199.247 189.909 200.469 189.909C202.025 189.909 203.288 190.404 204.257 191.396C205.234 192.38 205.723 193.776 205.723 195.585V206.797H201.11V196.497C201.11 195.571 200.864 194.876 200.372 194.413C199.88 193.95 199.265 193.718 198.527 193.718C197.687 193.718 197.032 193.986 196.562 194.522C196.092 195.05 195.856 195.748 195.856 196.616V206.797H191.374V196.399C191.374 195.582 191.139 194.93 190.668 194.446C190.205 193.961 189.594 193.718 188.834 193.718C188.32 193.718 187.857 193.849 187.445 194.109C187.039 194.362 186.717 194.721 186.479 195.184C186.24 195.639 186.12 196.175 186.12 196.79V206.797H181.497ZM231.992 190.126L226.163 206.797H220.954L215.125 190.126H220.009L223.472 202.054H223.645L227.097 190.126H231.992ZM241.354 207.123C239.668 207.123 238.21 206.765 236.979 206.048C235.757 205.325 234.812 204.319 234.147 203.031C233.481 201.736 233.148 200.234 233.148 198.527C233.148 196.804 233.481 195.299 234.147 194.011C234.812 192.716 235.757 191.71 236.979 190.994C238.21 190.27 239.668 189.909 241.354 189.909C243.04 189.909 244.494 190.27 245.717 190.994C246.947 191.71 247.895 192.716 248.561 194.011C249.226 195.299 249.559 196.804 249.559 198.527C249.559 200.234 249.226 201.736 248.561 203.031C247.895 204.319 246.947 205.325 245.717 206.048C244.494 206.765 243.04 207.123 241.354 207.123ZM241.375 203.541C242.142 203.541 242.783 203.324 243.296 202.89C243.81 202.449 244.197 201.848 244.458 201.088C244.726 200.328 244.859 199.464 244.859 198.494C244.859 197.524 244.726 196.66 244.458 195.9C244.197 195.14 243.81 194.54 243.296 194.098C242.783 193.657 242.142 193.436 241.375 193.436C240.601 193.436 239.95 193.657 239.422 194.098C238.901 194.54 238.506 195.14 238.239 195.9C237.978 196.66 237.848 197.524 237.848 198.494C237.848 199.464 237.978 200.328 238.239 201.088C238.506 201.848 238.901 202.449 239.422 202.89C239.95 203.324 240.601 203.541 241.375 203.541ZM260.098 207.123C258.391 207.123 256.922 206.761 255.692 206.038C254.469 205.307 253.528 204.294 252.87 202.998C252.218 201.703 251.893 200.213 251.893 198.527C251.893 196.819 252.222 195.321 252.881 194.033C253.546 192.738 254.491 191.728 255.713 191.005C256.936 190.274 258.391 189.909 260.077 189.909C261.531 189.909 262.805 190.173 263.897 190.701C264.99 191.229 265.855 191.971 266.491 192.926C267.128 193.881 267.479 195.003 267.544 196.291H263.181C263.058 195.459 262.732 194.789 262.204 194.283C261.683 193.769 260.999 193.512 260.153 193.512C259.436 193.512 258.81 193.707 258.275 194.098C257.747 194.482 257.334 195.043 257.038 195.781C256.741 196.519 256.593 197.412 256.593 198.462C256.593 199.525 256.737 200.43 257.027 201.175C257.323 201.92 257.739 202.488 258.275 202.879C258.81 203.27 259.436 203.465 260.153 203.465C260.681 203.465 261.155 203.357 261.575 203.14C262.001 202.922 262.352 202.608 262.627 202.195C262.91 201.776 263.094 201.273 263.181 200.687H267.544C267.472 201.96 267.125 203.082 266.502 204.051C265.887 205.014 265.037 205.766 263.952 206.309C262.866 206.852 261.582 207.123 260.098 207.123ZM278.102 207.123C276.388 207.123 274.911 206.776 273.674 206.081C272.444 205.379 271.496 204.388 270.83 203.107C270.165 201.819 269.832 200.296 269.832 198.537C269.832 196.823 270.165 195.317 270.83 194.022C271.496 192.727 272.433 191.718 273.641 190.994C274.857 190.27 276.283 189.909 277.918 189.909C279.018 189.909 280.042 190.086 280.99 190.44C281.945 190.788 282.777 191.312 283.486 192.014C284.202 192.716 284.76 193.599 285.158 194.663C285.556 195.719 285.754 196.956 285.754 198.375V199.645H271.677V196.779H281.402C281.402 196.113 281.257 195.524 280.968 195.01C280.678 194.496 280.277 194.095 279.763 193.805C279.257 193.508 278.667 193.36 277.994 193.36C277.292 193.36 276.67 193.523 276.127 193.849C275.592 194.167 275.172 194.597 274.868 195.14C274.564 195.676 274.408 196.273 274.401 196.931V199.655C274.401 200.48 274.553 201.193 274.857 201.794C275.168 202.394 275.606 202.857 276.17 203.183C276.735 203.509 277.404 203.671 278.178 203.671C278.692 203.671 279.163 203.599 279.589 203.454C280.016 203.31 280.382 203.093 280.686 202.803C280.99 202.514 281.221 202.159 281.38 201.739L285.657 202.022C285.44 203.049 284.995 203.946 284.322 204.713C283.656 205.473 282.795 206.067 281.739 206.493C280.689 206.913 279.477 207.123 278.102 207.123ZM279.991 188.129L277.809 185.48L275.628 188.129H271.688V187.977L276.084 183.201H279.524L283.931 187.977V188.129H279.991ZM292.744 200.133V199.764C292.752 198.498 292.864 197.488 293.081 196.736C293.305 195.983 293.631 195.375 294.058 194.912C294.485 194.449 294.998 194.029 295.599 193.653C296.048 193.364 296.449 193.063 296.804 192.752C297.158 192.441 297.441 192.097 297.65 191.721C297.86 191.338 297.965 190.911 297.965 190.44C297.965 189.941 297.846 189.503 297.607 189.127C297.368 188.751 297.046 188.461 296.641 188.259C296.243 188.056 295.802 187.955 295.317 187.955C294.846 187.955 294.401 188.06 293.982 188.27C293.562 188.472 293.218 188.776 292.951 189.181C292.683 189.579 292.538 190.075 292.517 190.668H288.088C288.124 189.221 288.472 188.027 289.13 187.087C289.789 186.139 290.66 185.433 291.746 184.97C292.831 184.5 294.029 184.265 295.339 184.265C296.779 184.265 298.052 184.503 299.159 184.981C300.266 185.451 301.135 186.135 301.764 187.032C302.394 187.93 302.708 189.011 302.708 190.278C302.708 191.124 302.567 191.877 302.285 192.535C302.01 193.186 301.623 193.765 301.124 194.272C300.624 194.771 300.035 195.223 299.355 195.629C298.783 195.969 298.313 196.323 297.943 196.692C297.582 197.061 297.31 197.488 297.129 197.973C296.956 198.458 296.865 199.055 296.858 199.764V200.133H292.744ZM294.894 207.08C294.17 207.08 293.551 206.826 293.037 206.32C292.531 205.806 292.281 205.191 292.289 204.475C292.281 203.765 292.531 203.158 293.037 202.651C293.551 202.145 294.17 201.891 294.894 201.891C295.581 201.891 296.185 202.145 296.706 202.651C297.227 203.158 297.491 203.765 297.498 204.475C297.491 204.952 297.365 205.39 297.119 205.788C296.88 206.179 296.565 206.493 296.174 206.732C295.784 206.964 295.357 207.08 294.894 207.08Z" fill="#2F2F33"/>
<path d="M144.314 244.492V233.377H151.021V234.571H145.66V238.327H150.674V239.521H145.66V243.298H151.108V244.492H144.314ZM154.554 233.377V244.492H153.274V233.377H154.554ZM160.395 244.665C159.592 244.665 158.899 244.488 158.317 244.134C157.738 243.775 157.291 243.276 156.976 242.636C156.665 241.992 156.509 241.243 156.509 240.389C156.509 239.535 156.665 238.783 156.976 238.131C157.291 237.477 157.729 236.966 158.29 236.601C158.854 236.232 159.512 236.047 160.265 236.047C160.699 236.047 161.128 236.12 161.551 236.265C161.974 236.409 162.36 236.644 162.707 236.97C163.054 237.292 163.331 237.719 163.537 238.251C163.744 238.783 163.847 239.437 163.847 240.215V240.758H157.421V239.651H162.544C162.544 239.181 162.45 238.761 162.262 238.392C162.078 238.023 161.813 237.732 161.47 237.518C161.13 237.305 160.728 237.198 160.265 237.198C159.755 237.198 159.313 237.325 158.941 237.578C158.572 237.827 158.288 238.153 158.089 238.555C157.89 238.956 157.79 239.387 157.79 239.846V240.584C157.79 241.214 157.899 241.748 158.116 242.185C158.337 242.62 158.642 242.951 159.033 243.178C159.424 243.403 159.878 243.515 160.395 243.515C160.732 243.515 161.036 243.468 161.307 243.374C161.582 243.276 161.819 243.131 162.018 242.94C162.217 242.744 162.371 242.502 162.479 242.212L163.716 242.56C163.586 242.98 163.367 243.349 163.06 243.667C162.752 243.982 162.372 244.228 161.92 244.405C161.468 244.579 160.96 244.665 160.395 244.665ZM175.998 238.023L174.847 238.348C174.775 238.157 174.668 237.97 174.527 237.789C174.39 237.605 174.201 237.453 173.963 237.334C173.724 237.214 173.418 237.155 173.045 237.155C172.535 237.155 172.11 237.272 171.77 237.507C171.434 237.739 171.265 238.034 171.265 238.392C171.265 238.71 171.381 238.962 171.613 239.146C171.844 239.331 172.206 239.485 172.698 239.608L173.936 239.911C174.681 240.092 175.236 240.369 175.602 240.742C175.967 241.111 176.15 241.587 176.15 242.169C176.15 242.647 176.012 243.074 175.737 243.45C175.466 243.826 175.086 244.123 174.598 244.34C174.109 244.557 173.541 244.665 172.894 244.665C172.043 244.665 171.34 244.481 170.782 244.112C170.225 243.743 169.873 243.204 169.724 242.495L170.94 242.191C171.056 242.639 171.274 242.976 171.596 243.2C171.922 243.425 172.347 243.537 172.872 243.537C173.469 243.537 173.943 243.41 174.294 243.157C174.648 242.9 174.826 242.592 174.826 242.234C174.826 241.945 174.724 241.702 174.522 241.507C174.319 241.308 174.008 241.16 173.588 241.062L172.199 240.736C171.435 240.555 170.875 240.275 170.517 239.895C170.162 239.512 169.985 239.032 169.985 238.457C169.985 237.987 170.117 237.571 170.381 237.209C170.649 236.847 171.012 236.563 171.472 236.357C171.935 236.151 172.459 236.047 173.045 236.047C173.87 236.047 174.518 236.228 174.988 236.59C175.462 236.952 175.799 237.43 175.998 238.023ZM181.573 244.665C180.769 244.665 180.077 244.488 179.494 244.134C178.915 243.775 178.468 243.276 178.154 242.636C177.842 241.992 177.687 241.243 177.687 240.389C177.687 239.535 177.842 238.783 178.154 238.131C178.468 237.477 178.906 236.966 179.467 236.601C180.031 236.232 180.69 236.047 181.442 236.047C181.877 236.047 182.305 236.12 182.729 236.265C183.152 236.409 183.537 236.644 183.885 236.97C184.232 237.292 184.509 237.719 184.715 238.251C184.921 238.783 185.024 239.437 185.024 240.215V240.758H178.599V239.651H183.722C183.722 239.181 183.628 238.761 183.44 238.392C183.255 238.023 182.991 237.732 182.647 237.518C182.307 237.305 181.905 237.198 181.442 237.198C180.932 237.198 180.491 237.325 180.118 237.578C179.749 237.827 179.465 238.153 179.266 238.555C179.067 238.956 178.968 239.387 178.968 239.846V240.584C178.968 241.214 179.076 241.748 179.293 242.185C179.514 242.62 179.82 242.951 180.21 243.178C180.601 243.403 181.055 243.515 181.573 243.515C181.909 243.515 182.213 243.468 182.484 243.374C182.759 243.276 182.996 243.131 183.195 242.94C183.394 242.744 183.548 242.502 183.657 242.212L184.894 242.56C184.764 242.98 184.545 243.349 184.237 243.667C183.93 243.982 183.55 244.228 183.098 244.405C182.645 244.579 182.137 244.665 181.573 244.665ZM186.972 244.492V236.156H188.21V237.415H188.297C188.449 237.003 188.724 236.668 189.122 236.411C189.52 236.154 189.968 236.026 190.467 236.026C190.562 236.026 190.679 236.028 190.82 236.031C190.961 236.035 191.068 236.04 191.14 236.047V237.35C191.097 237.339 190.998 237.323 190.842 237.301C190.69 237.276 190.529 237.263 190.359 237.263C189.954 237.263 189.592 237.348 189.274 237.518C188.959 237.685 188.709 237.916 188.525 238.213C188.344 238.506 188.253 238.841 188.253 239.217V244.492H186.972ZM195.112 244.687C194.583 244.687 194.104 244.588 193.673 244.389C193.243 244.186 192.901 243.895 192.648 243.515C192.395 243.131 192.268 242.668 192.268 242.126C192.268 241.648 192.362 241.261 192.55 240.964C192.738 240.664 192.99 240.429 193.304 240.259C193.619 240.089 193.967 239.962 194.346 239.879C194.73 239.792 195.115 239.723 195.502 239.673C196.009 239.608 196.42 239.559 196.734 239.526C197.053 239.49 197.284 239.43 197.429 239.347C197.577 239.264 197.651 239.119 197.651 238.913V238.869C197.651 238.334 197.505 237.918 197.212 237.621C196.922 237.325 196.483 237.176 195.893 237.176C195.282 237.176 194.802 237.31 194.455 237.578C194.108 237.846 193.863 238.131 193.722 238.435L192.507 238.001C192.724 237.495 193.013 237.1 193.375 236.818C193.74 236.532 194.138 236.333 194.569 236.221C195.003 236.105 195.43 236.047 195.85 236.047C196.117 236.047 196.425 236.08 196.772 236.145C197.123 236.207 197.461 236.335 197.787 236.53C198.116 236.726 198.39 237.021 198.607 237.415C198.824 237.809 198.932 238.338 198.932 239V244.492H197.651V243.363H197.586C197.499 243.544 197.355 243.737 197.152 243.944C196.95 244.15 196.68 244.325 196.344 244.47C196.007 244.615 195.596 244.687 195.112 244.687ZM195.307 243.537C195.814 243.537 196.24 243.437 196.588 243.238C196.939 243.039 197.203 242.782 197.38 242.468C197.561 242.153 197.651 241.822 197.651 241.474V240.302C197.597 240.367 197.478 240.427 197.293 240.481C197.112 240.532 196.903 240.577 196.664 240.617C196.429 240.653 196.199 240.686 195.975 240.715C195.754 240.74 195.575 240.762 195.437 240.78C195.104 240.823 194.793 240.894 194.504 240.991C194.218 241.085 193.986 241.228 193.809 241.42C193.635 241.608 193.549 241.865 193.549 242.191C193.549 242.636 193.713 242.972 194.042 243.2C194.375 243.425 194.797 243.537 195.307 243.537ZM195.35 235.027L196.675 232.509H198.172L196.479 235.027H195.35ZM210.821 241.084V236.156H212.102V244.492H210.821V243.081H210.735C210.539 243.504 210.235 243.864 209.823 244.161C209.41 244.454 208.889 244.6 208.26 244.6C207.739 244.6 207.276 244.486 206.871 244.258C206.465 244.027 206.147 243.68 205.915 243.216C205.684 242.75 205.568 242.162 205.568 241.453V236.156H206.849V241.366C206.849 241.974 207.019 242.459 207.359 242.82C207.703 243.182 208.14 243.363 208.672 243.363C208.991 243.363 209.314 243.282 209.644 243.119C209.977 242.956 210.255 242.706 210.479 242.37C210.707 242.033 210.821 241.605 210.821 241.084ZM218.073 236.156V237.241H213.753V236.156H218.073ZM215.012 234.159H216.293V242.104C216.293 242.466 216.346 242.737 216.451 242.918C216.559 243.095 216.697 243.215 216.863 243.276C217.033 243.334 217.212 243.363 217.4 243.363C217.541 243.363 217.657 243.356 217.748 243.341C217.838 243.323 217.91 243.309 217.965 243.298L218.225 244.448C218.138 244.481 218.017 244.514 217.862 244.546C217.706 244.582 217.509 244.6 217.27 244.6C216.908 244.6 216.554 244.523 216.206 244.367C215.863 244.211 215.577 243.974 215.349 243.656C215.125 243.338 215.012 242.936 215.012 242.451V234.159ZM220 244.492V236.156H221.281V244.492H220ZM220.651 234.767C220.401 234.767 220.186 234.682 220.005 234.512C219.828 234.342 219.739 234.137 219.739 233.898C219.739 233.66 219.828 233.455 220.005 233.285C220.186 233.115 220.401 233.03 220.651 233.03C220.901 233.03 221.114 233.115 221.291 233.285C221.472 233.455 221.563 233.66 221.563 233.898C221.563 234.137 221.472 234.342 221.291 234.512C221.114 234.682 220.901 234.767 220.651 234.767ZM224.907 233.377V244.492H223.626V233.377H224.907ZM227.253 244.492V236.156H228.534V244.492H227.253ZM227.904 234.767C227.655 234.767 227.439 234.682 227.258 234.512C227.081 234.342 226.992 234.137 226.992 233.898C226.992 233.66 227.081 233.455 227.258 233.285C227.439 233.115 227.655 233.03 227.904 233.03C228.154 233.03 228.367 233.115 228.545 233.285C228.725 233.455 228.816 233.66 228.816 233.898C228.816 234.137 228.725 234.342 228.545 234.512C228.367 234.682 228.154 234.767 227.904 234.767ZM230.641 244.492V243.515L235.373 237.437V237.35H230.793V236.156H237.023V237.176L232.421 243.211V243.298H237.175V244.492H230.641ZM241.601 244.687C241.072 244.687 240.593 244.588 240.162 244.389C239.732 244.186 239.39 243.895 239.137 243.515C238.883 243.131 238.757 242.668 238.757 242.126C238.757 241.648 238.851 241.261 239.039 240.964C239.227 240.664 239.479 240.429 239.793 240.259C240.108 240.089 240.455 239.962 240.835 239.879C241.219 239.792 241.604 239.723 241.991 239.673C242.498 239.608 242.908 239.559 243.223 239.526C243.542 239.49 243.773 239.43 243.918 239.347C244.066 239.264 244.14 239.119 244.14 238.913V238.869C244.14 238.334 243.994 237.918 243.701 237.621C243.411 237.325 242.972 237.176 242.382 237.176C241.771 237.176 241.291 237.31 240.944 237.578C240.597 237.846 240.352 238.131 240.211 238.435L238.996 238.001C239.213 237.495 239.502 237.1 239.864 236.818C240.229 236.532 240.627 236.333 241.058 236.221C241.492 236.105 241.919 236.047 242.339 236.047C242.606 236.047 242.914 236.08 243.261 236.145C243.612 236.207 243.95 236.335 244.276 236.53C244.605 236.726 244.878 237.021 245.096 237.415C245.313 237.809 245.421 238.338 245.421 239V244.492H244.14V243.363H244.075C243.988 243.544 243.844 243.737 243.641 243.944C243.438 244.15 243.169 244.325 242.832 244.47C242.496 244.615 242.085 244.687 241.601 244.687ZM241.796 243.537C242.302 243.537 242.729 243.437 243.077 243.238C243.428 243.039 243.692 242.782 243.869 242.468C244.05 242.153 244.14 241.822 244.14 241.474V240.302C244.086 240.367 243.967 240.427 243.782 240.481C243.601 240.532 243.391 240.577 243.153 240.617C242.917 240.653 242.688 240.686 242.463 240.715C242.243 240.74 242.064 240.762 241.926 240.78C241.593 240.823 241.282 240.894 240.993 240.991C240.707 241.085 240.475 241.228 240.298 241.42C240.124 241.608 240.038 241.865 240.038 242.191C240.038 242.636 240.202 242.972 240.531 243.2C240.864 243.425 241.286 243.537 241.796 243.537ZM250.906 244.665C250.212 244.665 249.599 244.49 249.067 244.139C248.535 243.785 248.119 243.285 247.818 242.641C247.518 241.994 247.368 241.228 247.368 240.346C247.368 239.47 247.518 238.71 247.818 238.066C248.119 237.422 248.537 236.925 249.072 236.574C249.608 236.223 250.226 236.047 250.928 236.047C251.471 236.047 251.9 236.138 252.214 236.319C252.533 236.496 252.775 236.699 252.942 236.927C253.112 237.151 253.244 237.335 253.338 237.48H253.446V233.377H254.727V244.492H253.49V243.211H253.338C253.244 243.363 253.11 243.555 252.936 243.786C252.762 244.014 252.515 244.219 252.193 244.4C251.871 244.577 251.442 244.665 250.906 244.665ZM251.08 243.515C251.594 243.515 252.028 243.381 252.383 243.113C252.737 242.842 253.007 242.468 253.191 241.99C253.376 241.509 253.468 240.953 253.468 240.324C253.468 239.702 253.378 239.157 253.197 238.69C253.016 238.22 252.748 237.855 252.393 237.594C252.039 237.33 251.601 237.198 251.08 237.198C250.537 237.198 250.085 237.337 249.723 237.616C249.365 237.891 249.096 238.265 248.915 238.739C248.737 239.21 248.649 239.738 248.649 240.324C248.649 240.917 248.739 241.456 248.92 241.941C249.105 242.422 249.376 242.806 249.734 243.092C250.096 243.374 250.545 243.515 251.08 243.515ZM260.637 244.665C259.884 244.665 259.224 244.486 258.656 244.128C258.092 243.77 257.65 243.269 257.332 242.625C257.017 241.981 256.86 241.228 256.86 240.367C256.86 239.499 257.017 238.741 257.332 238.093C257.65 237.446 258.092 236.943 258.656 236.585C259.224 236.227 259.884 236.047 260.637 236.047C261.39 236.047 262.048 236.227 262.612 236.585C263.18 236.943 263.622 237.446 263.937 238.093C264.255 238.741 264.414 239.499 264.414 240.367C264.414 241.228 264.255 241.981 263.937 242.625C263.622 243.269 263.18 243.77 262.612 244.128C262.048 244.486 261.39 244.665 260.637 244.665ZM260.637 243.515C261.209 243.515 261.679 243.368 262.048 243.075C262.417 242.782 262.69 242.397 262.868 241.919C263.045 241.442 263.133 240.924 263.133 240.367C263.133 239.81 263.045 239.291 262.868 238.81C262.69 238.329 262.417 237.94 262.048 237.643C261.679 237.346 261.209 237.198 260.637 237.198C260.065 237.198 259.595 237.346 259.226 237.643C258.857 237.94 258.584 238.329 258.407 238.81C258.229 239.291 258.141 239.81 258.141 240.367C258.141 240.924 258.229 241.442 258.407 241.919C258.584 242.397 258.857 242.782 259.226 243.075C259.595 243.368 260.065 243.515 260.637 243.515ZM270.667 247.618V236.156H271.905V237.48H272.057C272.151 237.335 272.281 237.151 272.448 236.927C272.618 236.699 272.86 236.496 273.175 236.319C273.493 236.138 273.924 236.047 274.466 236.047C275.168 236.047 275.787 236.223 276.322 236.574C276.858 236.925 277.276 237.422 277.576 238.066C277.876 238.71 278.026 239.47 278.026 240.346C278.026 241.228 277.876 241.994 277.576 242.641C277.276 243.285 276.86 243.785 276.328 244.139C275.796 244.49 275.183 244.665 274.488 244.665C273.953 244.665 273.524 244.577 273.202 244.4C272.88 244.219 272.632 244.014 272.458 243.786C272.285 243.555 272.151 243.363 272.057 243.211H271.948V247.618H270.667ZM271.927 240.324C271.927 240.953 272.019 241.509 272.203 241.99C272.388 242.468 272.657 242.842 273.012 243.113C273.366 243.381 273.801 243.515 274.314 243.515C274.85 243.515 275.297 243.374 275.655 243.092C276.017 242.806 276.288 242.422 276.469 241.941C276.653 241.456 276.746 240.917 276.746 240.324C276.746 239.738 276.655 239.21 276.474 238.739C276.297 238.265 276.028 237.891 275.666 237.616C275.308 237.337 274.857 237.198 274.314 237.198C273.793 237.198 273.356 237.33 273.001 237.594C272.647 237.855 272.379 238.22 272.198 238.69C272.017 239.157 271.927 239.702 271.927 240.324ZM282.433 244.687C281.905 244.687 281.426 244.588 280.995 244.389C280.564 244.186 280.223 243.895 279.969 243.515C279.716 243.131 279.589 242.668 279.589 242.126C279.589 241.648 279.683 241.261 279.872 240.964C280.06 240.664 280.311 240.429 280.626 240.259C280.941 240.089 281.288 239.962 281.668 239.879C282.051 239.792 282.437 239.723 282.824 239.673C283.33 239.608 283.741 239.559 284.056 239.526C284.374 239.49 284.606 239.43 284.75 239.347C284.899 239.264 284.973 239.119 284.973 238.913V238.869C284.973 238.334 284.826 237.918 284.533 237.621C284.244 237.325 283.804 237.176 283.215 237.176C282.603 237.176 282.124 237.31 281.776 237.578C281.429 237.846 281.185 238.131 281.044 238.435L279.828 238.001C280.045 237.495 280.335 237.1 280.697 236.818C281.062 236.532 281.46 236.333 281.89 236.221C282.325 236.105 282.752 236.047 283.171 236.047C283.439 236.047 283.746 236.08 284.094 236.145C284.445 236.207 284.783 236.335 285.109 236.53C285.438 236.726 285.711 237.021 285.928 237.415C286.145 237.809 286.254 238.338 286.254 239V244.492H284.973V243.363H284.908C284.821 243.544 284.676 243.737 284.474 243.944C284.271 244.15 284.002 244.325 283.665 244.47C283.329 244.615 282.918 244.687 282.433 244.687ZM282.629 243.537C283.135 243.537 283.562 243.437 283.909 243.238C284.26 243.039 284.524 242.782 284.702 242.468C284.883 242.153 284.973 241.822 284.973 241.474V240.302C284.919 240.367 284.799 240.427 284.615 240.481C284.434 240.532 284.224 240.577 283.985 240.617C283.75 240.653 283.52 240.686 283.296 240.715C283.075 240.74 282.896 240.762 282.759 240.78C282.426 240.823 282.115 240.894 281.825 240.991C281.54 241.085 281.308 241.228 281.131 241.42C280.957 241.608 280.87 241.865 280.87 242.191C280.87 242.636 281.035 242.972 281.364 243.2C281.697 243.425 282.118 243.537 282.629 243.537ZM288.591 244.492V236.156H289.829V237.415H289.916C290.068 237.003 290.343 236.668 290.741 236.411C291.139 236.154 291.587 236.026 292.086 236.026C292.18 236.026 292.298 236.028 292.439 236.031C292.58 236.035 292.687 236.04 292.759 236.047V237.35C292.716 237.339 292.616 237.323 292.461 237.301C292.309 237.276 292.148 237.263 291.978 237.263C291.573 237.263 291.211 237.348 290.892 237.518C290.578 237.685 290.328 237.916 290.144 238.213C289.963 238.506 289.872 238.841 289.872 239.217V244.492H288.591ZM296.731 244.687C296.202 244.687 295.723 244.588 295.292 244.389C294.862 244.186 294.52 243.895 294.267 243.515C294.013 243.131 293.887 242.668 293.887 242.126C293.887 241.648 293.981 241.261 294.169 240.964C294.357 240.664 294.609 240.429 294.923 240.259C295.238 240.089 295.585 239.962 295.965 239.879C296.349 239.792 296.734 239.723 297.121 239.673C297.628 239.608 298.038 239.559 298.353 239.526C298.672 239.49 298.903 239.43 299.048 239.347C299.196 239.264 299.27 239.119 299.27 238.913V238.869C299.27 238.334 299.124 237.918 298.831 237.621C298.541 237.325 298.102 237.176 297.512 237.176C296.901 237.176 296.421 237.31 296.074 237.578C295.727 237.846 295.482 238.131 295.341 238.435L294.126 238.001C294.343 237.495 294.632 237.1 294.994 236.818C295.359 236.532 295.757 236.333 296.188 236.221C296.622 236.105 297.049 236.047 297.469 236.047C297.736 236.047 298.044 236.08 298.391 236.145C298.742 236.207 299.08 236.335 299.406 236.53C299.735 236.726 300.008 237.021 300.226 237.415C300.443 237.809 300.551 238.338 300.551 239V244.492H299.27V243.363H299.205C299.118 243.544 298.974 243.737 298.771 243.944C298.569 244.15 298.299 244.325 297.962 244.47C297.626 244.615 297.215 244.687 296.731 244.687ZM296.926 243.537C297.432 243.537 297.859 243.437 298.207 243.238C298.558 243.039 298.822 242.782 298.999 242.468C299.18 242.153 299.27 241.822 299.27 241.474V240.302C299.216 240.367 299.097 240.427 298.912 240.481C298.731 240.532 298.521 240.577 298.283 240.617C298.048 240.653 297.818 240.686 297.593 240.715C297.373 240.74 297.194 240.762 297.056 240.78C296.723 240.823 296.412 240.894 296.123 240.991C295.837 241.085 295.605 241.228 295.428 241.42C295.254 241.608 295.168 241.865 295.168 242.191C295.168 242.636 295.332 242.972 295.661 243.2C295.994 243.425 296.416 243.537 296.926 243.537ZM310.682 244.665C309.879 244.665 309.186 244.488 308.603 244.134C308.025 243.775 307.578 243.276 307.263 242.636C306.952 241.992 306.796 241.243 306.796 240.389C306.796 239.535 306.952 238.783 307.263 238.131C307.578 237.477 308.016 236.966 308.576 236.601C309.141 236.232 309.799 236.047 310.552 236.047C310.986 236.047 311.415 236.12 311.838 236.265C312.261 236.409 312.647 236.644 312.994 236.97C313.341 237.292 313.618 237.719 313.824 238.251C314.03 238.783 314.134 239.437 314.134 240.215V240.758H307.708V239.651H312.831C312.831 239.181 312.737 238.761 312.549 238.392C312.364 238.023 312.1 237.732 311.757 237.518C311.416 237.305 311.015 237.198 310.552 237.198C310.042 237.198 309.6 237.325 309.228 237.578C308.859 237.827 308.575 238.153 308.376 238.555C308.177 238.956 308.077 239.387 308.077 239.846V240.584C308.077 241.214 308.186 241.748 308.403 242.185C308.623 242.62 308.929 242.951 309.32 243.178C309.711 243.403 310.165 243.515 310.682 243.515C311.018 243.515 311.322 243.468 311.594 243.374C311.869 243.276 312.106 243.131 312.305 242.94C312.504 242.744 312.657 242.502 312.766 242.212L314.003 242.56C313.873 242.98 313.654 243.349 313.347 243.667C313.039 243.982 312.659 244.228 312.207 244.405C311.755 244.579 311.246 244.665 310.682 244.665ZM317.363 239.477V244.492H316.082V236.156H317.319V237.458H317.428C317.623 237.035 317.92 236.695 318.318 236.438C318.716 236.178 319.229 236.047 319.859 236.047C320.423 236.047 320.917 236.163 321.341 236.395C321.764 236.623 322.093 236.97 322.328 237.437C322.563 237.9 322.681 238.486 322.681 239.195V244.492H321.4V239.282C321.4 238.627 321.23 238.117 320.89 237.752C320.55 237.382 320.083 237.198 319.49 237.198C319.081 237.198 318.716 237.287 318.394 237.464C318.075 237.641 317.824 237.9 317.639 238.24C317.455 238.58 317.363 238.992 317.363 239.477ZM328.647 236.156V237.241H324.327V236.156H328.647ZM325.586 234.159H326.867V242.104C326.867 242.466 326.919 242.737 327.024 242.918C327.133 243.095 327.27 243.215 327.436 243.276C327.606 243.334 327.786 243.363 327.974 243.363C328.115 243.363 328.231 243.356 328.321 243.341C328.411 243.323 328.484 243.309 328.538 243.298L328.799 244.448C328.712 244.481 328.591 244.514 328.435 244.546C328.279 244.582 328.082 244.6 327.843 244.6C327.482 244.6 327.127 244.523 326.78 244.367C326.436 244.211 326.15 243.974 325.922 243.656C325.698 243.338 325.586 242.936 325.586 242.451V234.159ZM330.573 244.492V236.156H331.811V237.415H331.897C332.049 237.003 332.324 236.668 332.722 236.411C333.12 236.154 333.569 236.026 334.068 236.026C334.162 236.026 334.28 236.028 334.421 236.031C334.562 236.035 334.669 236.04 334.741 236.047V237.35C334.698 237.339 334.598 237.323 334.443 237.301C334.291 237.276 334.13 237.263 333.96 237.263C333.554 237.263 333.193 237.348 332.874 237.518C332.56 237.685 332.31 237.916 332.125 238.213C331.944 238.506 331.854 238.841 331.854 239.217V244.492H330.573ZM338.712 244.687C338.184 244.687 337.705 244.588 337.274 244.389C336.844 244.186 336.502 243.895 336.249 243.515C335.995 243.131 335.869 242.668 335.869 242.126C335.869 241.648 335.963 241.261 336.151 240.964C336.339 240.664 336.59 240.429 336.905 240.259C337.22 240.089 337.567 239.962 337.947 239.879C338.331 239.792 338.716 239.723 339.103 239.673C339.61 239.608 340.02 239.559 340.335 239.526C340.653 239.49 340.885 239.43 341.03 239.347C341.178 239.264 341.252 239.119 341.252 238.913V238.869C341.252 238.334 341.106 237.918 340.813 237.621C340.523 237.325 340.084 237.176 339.494 237.176C338.882 237.176 338.403 237.31 338.056 237.578C337.708 237.846 337.464 238.131 337.323 238.435L336.107 238.001C336.324 237.495 336.614 237.1 336.976 236.818C337.341 236.532 337.739 236.333 338.17 236.221C338.604 236.105 339.031 236.047 339.45 236.047C339.718 236.047 340.026 236.08 340.373 236.145C340.724 236.207 341.062 236.335 341.388 236.53C341.717 236.726 341.99 237.021 342.207 237.415C342.424 237.809 342.533 238.338 342.533 239V244.492H341.252V243.363H341.187C341.1 243.544 340.956 243.737 340.753 243.944C340.55 244.15 340.281 244.325 339.944 244.47C339.608 244.615 339.197 244.687 338.712 244.687ZM338.908 243.537C339.414 243.537 339.841 243.437 340.189 243.238C340.539 243.039 340.804 242.782 340.981 242.468C341.162 242.153 341.252 241.822 341.252 241.474V240.302C341.198 240.367 341.079 240.427 340.894 240.481C340.713 240.532 340.503 240.577 340.264 240.617C340.029 240.653 339.8 240.686 339.575 240.715C339.355 240.74 339.175 240.762 339.038 240.78C338.705 240.823 338.394 240.894 338.105 240.991C337.819 241.085 337.587 241.228 337.41 241.42C337.236 241.608 337.149 241.865 337.149 242.191C337.149 242.636 337.314 242.972 337.643 243.2C337.976 243.425 338.398 243.537 338.908 243.537ZM344.871 244.492V236.156H346.108V237.415H346.195C346.347 237.003 346.622 236.668 347.02 236.411C347.418 236.154 347.866 236.026 348.366 236.026C348.46 236.026 348.577 236.028 348.718 236.031C348.859 236.035 348.966 236.04 349.039 236.047V237.35C348.995 237.339 348.896 237.323 348.74 237.301C348.588 237.276 348.427 237.263 348.257 237.263C347.852 237.263 347.49 237.348 347.172 237.518C346.857 237.685 346.607 237.916 346.423 238.213C346.242 238.506 346.151 238.841 346.151 239.217V244.492H344.871ZM358.35 244.665C357.547 244.665 356.854 244.488 356.271 244.134C355.693 243.775 355.246 243.276 354.931 242.636C354.62 241.992 354.464 241.243 354.464 240.389C354.464 239.535 354.62 238.783 354.931 238.131C355.246 237.477 355.683 236.966 356.244 236.601C356.809 236.232 357.467 236.047 358.22 236.047C358.654 236.047 359.083 236.12 359.506 236.265C359.929 236.409 360.314 236.644 360.662 236.97C361.009 237.292 361.286 237.719 361.492 238.251C361.698 238.783 361.801 239.437 361.801 240.215V240.758H355.376V239.651H360.499C360.499 239.181 360.405 238.761 360.217 238.392C360.032 238.023 359.768 237.732 359.424 237.518C359.084 237.305 358.683 237.198 358.22 237.198C357.71 237.198 357.268 237.325 356.895 237.578C356.526 237.827 356.242 238.153 356.043 238.555C355.844 238.956 355.745 239.387 355.745 239.846V240.584C355.745 241.214 355.854 241.748 356.071 242.185C356.291 242.62 356.597 242.951 356.988 243.178C357.378 243.403 357.833 243.515 358.35 243.515C358.686 243.515 358.99 243.468 359.262 243.374C359.537 243.276 359.774 243.131 359.973 242.94C360.172 242.744 360.325 242.502 360.434 242.212L361.671 242.56C361.541 242.98 361.322 243.349 361.015 243.667C360.707 243.982 360.327 244.228 359.875 244.405C359.423 244.579 358.914 244.665 358.35 244.665ZM363.75 244.492V236.156H364.987V237.458H365.096C365.269 237.013 365.55 236.668 365.937 236.422C366.324 236.172 366.789 236.047 367.332 236.047C367.882 236.047 368.339 236.172 368.705 236.422C369.074 236.668 369.361 237.013 369.568 237.458H369.654C369.868 237.028 370.188 236.686 370.615 236.433C371.042 236.176 371.554 236.047 372.151 236.047C372.896 236.047 373.506 236.281 373.98 236.748C374.454 237.211 374.691 237.932 374.691 238.913V244.492H373.41V238.913C373.41 238.298 373.242 237.858 372.905 237.594C372.569 237.33 372.172 237.198 371.717 237.198C371.13 237.198 370.676 237.375 370.354 237.73C370.032 238.081 369.871 238.526 369.871 239.065V244.492H368.569V238.783C368.569 238.309 368.415 237.927 368.108 237.638C367.8 237.344 367.404 237.198 366.919 237.198C366.586 237.198 366.275 237.287 365.986 237.464C365.7 237.641 365.468 237.887 365.291 238.202C365.117 238.513 365.031 238.873 365.031 239.282V244.492H363.75ZM384.717 244.665C383.935 244.665 383.263 244.481 382.698 244.112C382.134 243.743 381.7 243.235 381.396 242.587C381.092 241.939 380.94 241.199 380.94 240.367C380.94 239.521 381.095 238.774 381.406 238.126C381.721 237.475 382.159 236.966 382.72 236.601C383.284 236.232 383.943 236.047 384.695 236.047C385.281 236.047 385.81 236.156 386.28 236.373C386.75 236.59 387.136 236.894 387.436 237.285C387.736 237.676 387.922 238.131 387.995 238.652H386.714C386.616 238.272 386.399 237.936 386.063 237.643C385.73 237.346 385.281 237.198 384.717 237.198C384.218 237.198 383.78 237.328 383.404 237.589C383.031 237.846 382.74 238.209 382.53 238.68C382.324 239.146 382.221 239.694 382.221 240.324C382.221 240.968 382.322 241.529 382.524 242.006C382.731 242.484 383.02 242.855 383.393 243.119C383.769 243.383 384.21 243.515 384.717 243.515C385.05 243.515 385.352 243.457 385.623 243.341C385.895 243.226 386.124 243.059 386.312 242.842C386.501 242.625 386.634 242.364 386.714 242.061H387.995C387.922 242.553 387.743 242.996 387.458 243.39C387.175 243.781 386.801 244.092 386.334 244.324C385.871 244.552 385.332 244.665 384.717 244.665ZM393.254 244.665C392.501 244.665 391.841 244.486 391.273 244.128C390.708 243.77 390.267 243.269 389.949 242.625C389.634 241.981 389.476 241.228 389.476 240.367C389.476 239.499 389.634 238.741 389.949 238.093C390.267 237.446 390.708 236.943 391.273 236.585C391.841 236.227 392.501 236.047 393.254 236.047C394.006 236.047 394.665 236.227 395.229 236.585C395.797 236.943 396.238 237.446 396.553 238.093C396.872 238.741 397.031 239.499 397.031 240.367C397.031 241.228 396.872 241.981 396.553 242.625C396.238 243.269 395.797 243.77 395.229 244.128C394.665 244.486 394.006 244.665 393.254 244.665ZM393.254 243.515C393.825 243.515 394.296 243.368 394.665 243.075C395.034 242.782 395.307 242.397 395.484 241.919C395.661 241.442 395.75 240.924 395.75 240.367C395.75 239.81 395.661 239.291 395.484 238.81C395.307 238.329 395.034 237.94 394.665 237.643C394.296 237.346 393.825 237.198 393.254 237.198C392.682 237.198 392.212 237.346 391.843 237.643C391.474 237.94 391.2 238.329 391.023 238.81C390.846 239.291 390.757 239.81 390.757 240.367C390.757 240.924 390.846 241.442 391.023 241.919C391.2 242.397 391.474 242.782 391.843 243.075C392.212 243.368 392.682 243.515 393.254 243.515ZM400.267 239.477V244.492H398.986V236.156H400.223V237.458H400.332C400.527 237.035 400.824 236.695 401.222 236.438C401.62 236.178 402.133 236.047 402.763 236.047C403.327 236.047 403.821 236.163 404.245 236.395C404.668 236.623 404.997 236.97 405.232 237.437C405.467 237.9 405.585 238.486 405.585 239.195V244.492H404.304V239.282C404.304 238.627 404.134 238.117 403.794 237.752C403.454 237.382 402.987 237.198 402.394 237.198C401.985 237.198 401.62 237.287 401.298 237.464C400.979 237.641 400.728 237.9 400.543 238.24C400.359 238.58 400.267 238.992 400.267 239.477ZM411.551 236.156V237.241H407.231V236.156H411.551ZM408.49 234.159H409.771V242.104C409.771 242.466 409.823 242.737 409.928 242.918C410.037 243.095 410.174 243.215 410.34 243.276C410.51 243.334 410.69 243.363 410.878 243.363C411.019 243.363 411.135 243.356 411.225 243.341C411.315 243.323 411.388 243.309 411.442 243.298L411.703 244.448C411.616 244.481 411.495 244.514 411.339 244.546C411.183 244.582 410.986 244.6 410.747 244.6C410.386 244.6 410.031 244.523 409.684 244.367C409.34 244.211 409.054 243.974 408.826 243.656C408.602 243.338 408.49 242.936 408.49 242.451V234.159ZM415.93 244.687C415.402 244.687 414.923 244.588 414.492 244.389C414.062 244.186 413.72 243.895 413.466 243.515C413.213 243.131 413.087 242.668 413.087 242.126C413.087 241.648 413.181 241.261 413.369 240.964C413.557 240.664 413.808 240.429 414.123 240.259C414.438 240.089 414.785 239.962 415.165 239.879C415.549 239.792 415.934 239.723 416.321 239.673C416.828 239.608 417.238 239.559 417.553 239.526C417.871 239.49 418.103 239.43 418.248 239.347C418.396 239.264 418.47 239.119 418.47 238.913V238.869C418.47 238.334 418.324 237.918 418.03 237.621C417.741 237.325 417.301 237.176 416.712 237.176C416.1 237.176 415.621 237.31 415.274 237.578C414.926 237.846 414.682 238.131 414.541 238.435L413.325 238.001C413.542 237.495 413.832 237.1 414.194 236.818C414.559 236.532 414.957 236.333 415.388 236.221C415.822 236.105 416.249 236.047 416.668 236.047C416.936 236.047 417.244 236.08 417.591 236.145C417.942 236.207 418.28 236.335 418.606 236.53C418.935 236.726 419.208 237.021 419.425 237.415C419.642 237.809 419.751 238.338 419.751 239V244.492H418.47V243.363H418.405C418.318 243.544 418.173 243.737 417.971 243.944C417.768 244.15 417.499 244.325 417.162 244.47C416.826 244.615 416.415 244.687 415.93 244.687ZM416.126 243.537C416.632 243.537 417.059 243.437 417.406 243.238C417.757 243.039 418.021 242.782 418.199 242.468C418.38 242.153 418.47 241.822 418.47 241.474V240.302C418.416 240.367 418.296 240.427 418.112 240.481C417.931 240.532 417.721 240.577 417.482 240.617C417.247 240.653 417.017 240.686 416.793 240.715C416.572 240.74 416.393 240.762 416.256 240.78C415.923 240.823 415.612 240.894 415.322 240.991C415.037 241.085 414.805 241.228 414.628 241.42C414.454 241.608 414.367 241.865 414.367 242.191C414.367 242.636 414.532 242.972 414.861 243.2C415.194 243.425 415.615 243.537 416.126 243.537ZM425.714 236.156V237.241H421.394V236.156H425.714ZM422.653 234.159H423.934V242.104C423.934 242.466 423.986 242.737 424.091 242.918C424.2 243.095 424.337 243.215 424.504 243.276C424.674 243.334 424.853 243.363 425.041 243.363C425.182 243.363 425.298 243.356 425.388 243.341C425.479 243.323 425.551 243.309 425.605 243.298L425.866 244.448C425.779 244.481 425.658 244.514 425.502 244.546C425.347 244.582 425.149 244.6 424.911 244.6C424.549 244.6 424.194 244.523 423.847 244.367C423.503 244.211 423.217 243.974 422.989 243.656C422.765 243.338 422.653 242.936 422.653 242.451V234.159ZM430.937 244.665C430.185 244.665 429.524 244.486 428.956 244.128C428.392 243.77 427.951 243.269 427.632 242.625C427.317 241.981 427.16 241.228 427.16 240.367C427.16 239.499 427.317 238.741 427.632 238.093C427.951 237.446 428.392 236.943 428.956 236.585C429.524 236.227 430.185 236.047 430.937 236.047C431.69 236.047 432.348 236.227 432.913 236.585C433.481 236.943 433.922 237.446 434.237 238.093C434.555 238.741 434.714 239.499 434.714 240.367C434.714 241.228 434.555 241.981 434.237 242.625C433.922 243.269 433.481 243.77 432.913 244.128C432.348 244.486 431.69 244.665 430.937 244.665ZM430.937 243.515C431.509 243.515 431.979 243.368 432.348 243.075C432.717 242.782 432.99 242.397 433.168 241.919C433.345 241.442 433.434 240.924 433.434 240.367C433.434 239.81 433.345 239.291 433.168 238.81C432.99 238.329 432.717 237.94 432.348 237.643C431.979 237.346 431.509 237.198 430.937 237.198C430.366 237.198 429.895 237.346 429.526 237.643C429.157 237.94 428.884 238.329 428.707 238.81C428.529 239.291 428.441 239.81 428.441 240.367C428.441 240.924 428.529 241.442 428.707 241.919C428.884 242.397 429.157 242.782 429.526 243.075C429.895 243.368 430.366 243.515 430.937 243.515ZM444.354 244.665C443.573 244.665 442.9 244.481 442.335 244.112C441.771 243.743 441.337 243.235 441.033 242.587C440.729 241.939 440.577 241.199 440.577 240.367C440.577 239.521 440.732 238.774 441.044 238.126C441.358 237.475 441.796 236.966 442.357 236.601C442.921 236.232 443.58 236.047 444.332 236.047C444.918 236.047 445.447 236.156 445.917 236.373C446.387 236.59 446.773 236.894 447.073 237.285C447.373 237.676 447.56 238.131 447.632 238.652H446.351C446.254 238.272 446.036 237.936 445.7 237.643C445.367 237.346 444.918 237.198 444.354 237.198C443.855 237.198 443.417 237.328 443.041 237.589C442.668 237.846 442.377 238.209 442.167 238.68C441.961 239.146 441.858 239.694 441.858 240.324C441.858 240.968 441.959 241.529 442.162 242.006C442.368 242.484 442.657 242.855 443.03 243.119C443.406 243.383 443.848 243.515 444.354 243.515C444.687 243.515 444.989 243.457 445.26 243.341C445.532 243.226 445.761 243.059 445.95 242.842C446.138 242.625 446.272 242.364 446.351 242.061H447.632C447.56 242.553 447.381 242.996 447.095 243.39C446.813 243.781 446.438 244.092 445.971 244.324C445.508 244.552 444.969 244.665 444.354 244.665ZM452.891 244.665C452.138 244.665 451.478 244.486 450.91 244.128C450.345 243.77 449.904 243.269 449.586 242.625C449.271 241.981 449.114 241.228 449.114 240.367C449.114 239.499 449.271 238.741 449.586 238.093C449.904 237.446 450.345 236.943 450.91 236.585C451.478 236.227 452.138 236.047 452.891 236.047C453.643 236.047 454.302 236.227 454.866 236.585C455.434 236.943 455.876 237.446 456.19 238.093C456.509 238.741 456.668 239.499 456.668 240.367C456.668 241.228 456.509 241.981 456.19 242.625C455.876 243.269 455.434 243.77 454.866 244.128C454.302 244.486 453.643 244.665 452.891 244.665ZM452.891 243.515C453.462 243.515 453.933 243.368 454.302 243.075C454.671 242.782 454.944 242.397 455.121 241.919C455.299 241.442 455.387 240.924 455.387 240.367C455.387 239.81 455.299 239.291 455.121 238.81C454.944 238.329 454.671 237.94 454.302 237.643C453.933 237.346 453.462 237.198 452.891 237.198C452.319 237.198 451.849 237.346 451.48 237.643C451.111 237.94 450.838 238.329 450.66 238.81C450.483 239.291 450.394 239.81 450.394 240.367C450.394 240.924 450.483 241.442 450.66 241.919C450.838 242.397 451.111 242.782 451.48 243.075C451.849 243.368 452.319 243.515 452.891 243.515ZM458.623 244.492V236.156H459.86V237.458H459.969C460.143 237.013 460.423 236.668 460.81 236.422C461.197 236.172 461.662 236.047 462.205 236.047C462.755 236.047 463.212 236.172 463.578 236.422C463.947 236.668 464.234 237.013 464.441 237.458H464.528C464.741 237.028 465.061 236.686 465.488 236.433C465.915 236.176 466.427 236.047 467.024 236.047C467.769 236.047 468.379 236.281 468.853 236.748C469.327 237.211 469.564 237.932 469.564 238.913V244.492H468.283V238.913C468.283 238.298 468.115 237.858 467.778 237.594C467.442 237.33 467.046 237.198 466.59 237.198C466.004 237.198 465.55 237.375 465.228 237.73C464.906 238.081 464.745 238.526 464.745 239.065V244.492H463.442V238.783C463.442 238.309 463.288 237.927 462.981 237.638C462.673 237.344 462.277 237.198 461.792 237.198C461.459 237.198 461.148 237.287 460.859 237.464C460.573 237.641 460.342 237.887 460.164 238.202C459.991 238.513 459.904 238.873 459.904 239.282V244.492H458.623ZM483.02 236.156L479.937 244.492H478.635L475.552 236.156H476.942L479.243 242.799H479.33L481.631 236.156H483.02ZM487.798 244.665C487.046 244.665 486.386 244.486 485.818 244.128C485.253 243.77 484.812 243.269 484.493 242.625C484.179 241.981 484.021 241.228 484.021 240.367C484.021 239.499 484.179 238.741 484.493 238.093C484.812 237.446 485.253 236.943 485.818 236.585C486.386 236.227 487.046 236.047 487.798 236.047C488.551 236.047 489.209 236.227 489.774 236.585C490.342 236.943 490.783 237.446 491.098 238.093C491.416 238.741 491.576 239.499 491.576 240.367C491.576 241.228 491.416 241.981 491.098 242.625C490.783 243.269 490.342 243.77 489.774 244.128C489.209 244.486 488.551 244.665 487.798 244.665ZM487.798 243.515C488.37 243.515 488.84 243.368 489.209 243.075C489.578 242.782 489.852 242.397 490.029 241.919C490.206 241.442 490.295 240.924 490.295 240.367C490.295 239.81 490.206 239.291 490.029 238.81C489.852 238.329 489.578 237.94 489.209 237.643C488.84 237.346 488.37 237.198 487.798 237.198C487.227 237.198 486.756 237.346 486.387 237.643C486.018 237.94 485.745 238.329 485.568 238.81C485.391 239.291 485.302 239.81 485.302 240.367C485.302 240.924 485.391 241.442 485.568 241.919C485.745 242.397 486.018 242.782 486.387 243.075C486.756 243.368 487.227 243.515 487.798 243.515ZM496.917 244.665C496.136 244.665 495.463 244.481 494.898 244.112C494.334 243.743 493.9 243.235 493.596 242.587C493.292 241.939 493.14 241.199 493.14 240.367C493.14 239.521 493.296 238.774 493.607 238.126C493.921 237.475 494.359 236.966 494.92 236.601C495.484 236.232 496.143 236.047 496.895 236.047C497.482 236.047 498.01 236.156 498.48 236.373C498.95 236.59 499.336 236.894 499.636 237.285C499.936 237.676 500.123 238.131 500.195 238.652H498.914C498.817 238.272 498.6 237.936 498.263 237.643C497.93 237.346 497.482 237.198 496.917 237.198C496.418 237.198 495.98 237.328 495.604 237.589C495.231 237.846 494.94 238.209 494.73 238.68C494.524 239.146 494.421 239.694 494.421 240.324C494.421 240.968 494.522 241.529 494.725 242.006C494.931 242.484 495.22 242.855 495.593 243.119C495.969 243.383 496.411 243.515 496.917 243.515C497.25 243.515 497.552 243.457 497.823 243.341C498.095 243.226 498.325 243.059 498.513 242.842C498.701 242.625 498.835 242.364 498.914 242.061H500.195C500.123 242.553 499.944 242.996 499.658 243.39C499.376 243.781 499.001 244.092 498.534 244.324C498.071 244.552 497.532 244.665 496.917 244.665ZM505.562 244.665C504.759 244.665 504.066 244.488 503.484 244.134C502.905 243.775 502.458 243.276 502.143 242.636C501.832 241.992 501.677 241.243 501.677 240.389C501.677 239.535 501.832 238.783 502.143 238.131C502.458 237.477 502.896 236.966 503.457 236.601C504.021 236.232 504.68 236.047 505.432 236.047C505.866 236.047 506.295 236.12 506.718 236.265C507.142 236.409 507.527 236.644 507.874 236.97C508.222 237.292 508.498 237.719 508.705 238.251C508.911 238.783 509.014 239.437 509.014 240.215V240.758H502.588V239.651H507.711C507.711 239.181 507.617 238.761 507.429 238.392C507.245 238.023 506.981 237.732 506.637 237.518C506.297 237.305 505.895 237.198 505.432 237.198C504.922 237.198 504.481 237.325 504.108 237.578C503.739 237.827 503.455 238.153 503.256 238.555C503.057 238.956 502.957 239.387 502.957 239.846V240.584C502.957 241.214 503.066 241.748 503.283 242.185C503.504 242.62 503.809 242.951 504.2 243.178C504.591 243.403 505.045 243.515 505.562 243.515C505.899 243.515 506.203 243.468 506.474 243.374C506.749 243.276 506.986 243.131 507.185 242.94C507.384 242.744 507.538 242.502 507.646 242.212L508.884 242.56C508.753 242.98 508.535 243.349 508.227 243.667C507.919 243.982 507.54 244.228 507.087 244.405C506.635 244.579 506.127 244.665 505.562 244.665ZM506.496 235.157L505.367 233.638L504.238 235.157H503.023V235.071L504.781 232.813H505.953L507.711 235.071V235.157H506.496ZM512.655 233.377L512.547 241.366H511.288L511.179 233.377H512.655ZM511.917 244.579C511.65 244.579 511.42 244.483 511.228 244.291C511.036 244.099 510.94 243.87 510.94 243.602C510.94 243.334 511.036 243.104 511.228 242.913C511.42 242.721 511.65 242.625 511.917 242.625C512.185 242.625 512.415 242.721 512.607 242.913C512.798 243.104 512.894 243.334 512.894 243.602C512.894 243.779 512.849 243.942 512.759 244.09C512.672 244.239 512.554 244.358 512.406 244.448C512.261 244.535 512.098 244.579 511.917 244.579Z" fill="#59595C"/>
<rect x="454.983" y="463.732" width="137.542" height="35.6589" rx="5.09413" fill="#685ED9"/>
<path d="M474.9 480.246H473.316C473.287 480.041 473.228 479.859 473.138 479.7C473.049 479.538 472.935 479.401 472.795 479.287C472.655 479.174 472.493 479.087 472.31 479.027C472.129 478.966 471.933 478.936 471.72 478.936C471.337 478.936 471.003 479.032 470.718 479.222C470.433 479.41 470.213 479.685 470.056 480.047C469.899 480.406 469.821 480.843 469.821 481.357C469.821 481.885 469.899 482.329 470.056 482.688C470.215 483.048 470.437 483.319 470.722 483.502C471.006 483.685 471.336 483.777 471.709 483.777C471.919 483.777 472.113 483.749 472.292 483.694C472.473 483.638 472.633 483.558 472.773 483.452C472.913 483.343 473.029 483.212 473.12 483.057C473.214 482.903 473.28 482.727 473.316 482.529L474.9 482.536C474.859 482.876 474.757 483.204 474.593 483.52C474.431 483.834 474.213 484.115 473.938 484.363C473.666 484.609 473.34 484.805 472.961 484.949C472.585 485.092 472.159 485.163 471.684 485.163C471.023 485.163 470.432 485.013 469.911 484.714C469.393 484.415 468.983 483.982 468.681 483.415C468.382 482.849 468.233 482.162 468.233 481.357C468.233 480.549 468.384 479.861 468.688 479.294C468.992 478.728 469.405 478.296 469.926 477.999C470.447 477.7 471.033 477.551 471.684 477.551C472.113 477.551 472.511 477.611 472.878 477.731C473.247 477.852 473.574 478.028 473.858 478.26C474.143 478.489 474.375 478.77 474.553 479.103C474.734 479.436 474.85 479.817 474.9 480.246ZM478.506 485.17C477.944 485.17 477.458 485.051 477.048 484.812C476.64 484.571 476.325 484.235 476.103 483.806C475.882 483.374 475.771 482.874 475.771 482.305C475.771 481.731 475.882 481.229 476.103 480.8C476.325 480.368 476.64 480.033 477.048 479.794C477.458 479.553 477.944 479.432 478.506 479.432C479.068 479.432 479.553 479.553 479.96 479.794C480.37 480.033 480.686 480.368 480.908 480.8C481.13 481.229 481.241 481.731 481.241 482.305C481.241 482.874 481.13 483.374 480.908 483.806C480.686 484.235 480.37 484.571 479.96 484.812C479.553 485.051 479.068 485.17 478.506 485.17ZM478.513 483.976C478.769 483.976 478.982 483.904 479.153 483.759C479.325 483.612 479.454 483.412 479.541 483.158C479.63 482.905 479.674 482.617 479.674 482.294C479.674 481.971 479.63 481.682 479.541 481.429C479.454 481.176 479.325 480.976 479.153 480.828C478.982 480.681 478.769 480.608 478.513 480.608C478.255 480.608 478.038 480.681 477.862 480.828C477.688 480.976 477.557 481.176 477.467 481.429C477.381 481.682 477.337 481.971 477.337 482.294C477.337 482.617 477.381 482.905 477.467 483.158C477.557 483.412 477.688 483.612 477.862 483.759C478.038 483.904 478.255 483.976 478.513 483.976ZM483.784 481.849V485.062H482.243V479.504H483.712V480.485H483.777C483.9 480.162 484.106 479.906 484.396 479.718C484.685 479.527 485.036 479.432 485.449 479.432C485.835 479.432 486.171 479.516 486.458 479.685C486.745 479.854 486.968 480.095 487.127 480.409C487.287 480.72 487.366 481.091 487.366 481.523V485.062H485.825V481.798C485.827 481.458 485.741 481.193 485.564 481.002C485.388 480.809 485.146 480.713 484.837 480.713C484.63 480.713 484.447 480.757 484.287 480.847C484.131 480.936 484.008 481.066 483.918 481.237C483.831 481.406 483.787 481.61 483.784 481.849ZM491.537 479.504V480.662H488.19V479.504H491.537ZM488.95 478.173H490.491V483.354C490.491 483.496 490.513 483.607 490.556 483.687C490.6 483.764 490.66 483.818 490.737 483.849C490.817 483.881 490.909 483.897 491.012 483.897C491.085 483.897 491.157 483.891 491.229 483.878C491.302 483.864 491.357 483.853 491.396 483.846L491.638 484.993C491.561 485.017 491.452 485.045 491.313 485.076C491.173 485.11 491.003 485.13 490.802 485.138C490.431 485.152 490.105 485.103 489.826 484.989C489.548 484.876 489.332 484.7 489.178 484.461C489.024 484.222 488.948 483.921 488.95 483.556V478.173ZM492.541 485.062V479.504H494.082V485.062H492.541ZM493.315 478.788C493.086 478.788 492.889 478.712 492.725 478.56C492.564 478.406 492.483 478.221 492.483 478.006C492.483 477.794 492.564 477.612 492.725 477.46C492.889 477.306 493.086 477.229 493.315 477.229C493.544 477.229 493.74 477.306 493.901 477.46C494.065 477.612 494.147 477.794 494.147 478.006C494.147 478.221 494.065 478.406 493.901 478.56C493.74 478.712 493.544 478.788 493.315 478.788ZM496.858 481.849V485.062H495.317V479.504H496.786V480.485H496.851C496.974 480.162 497.18 479.906 497.469 479.718C497.759 479.527 498.11 479.432 498.522 479.432C498.908 479.432 499.245 479.516 499.532 479.685C499.819 479.854 500.042 480.095 500.201 480.409C500.36 480.72 500.44 481.091 500.44 481.523V485.062H498.899V481.798C498.901 481.458 498.814 481.193 498.638 481.002C498.462 480.809 498.22 480.713 497.911 480.713C497.703 480.713 497.52 480.757 497.361 480.847C497.204 480.936 497.081 481.066 496.992 481.237C496.905 481.406 496.86 481.61 496.858 481.849ZM505.218 482.695V479.504H506.76V485.062H505.28V484.052H505.222C505.097 484.378 504.888 484.639 504.596 484.837C504.307 485.035 503.953 485.134 503.536 485.134C503.165 485.134 502.838 485.049 502.555 484.881C502.273 484.712 502.053 484.472 501.893 484.161C501.737 483.849 501.657 483.477 501.655 483.043V479.504H503.196V482.768C503.198 483.096 503.286 483.355 503.46 483.546C503.634 483.736 503.866 483.831 504.158 483.831C504.344 483.831 504.518 483.789 504.679 483.705C504.841 483.618 504.971 483.49 505.07 483.321C505.171 483.152 505.221 482.944 505.218 482.695ZM509.577 485.166C509.223 485.166 508.907 485.105 508.629 484.982C508.352 484.857 508.132 484.672 507.971 484.428C507.812 484.182 507.732 483.876 507.732 483.509C507.732 483.201 507.789 482.941 507.902 482.732C508.015 482.522 508.17 482.353 508.365 482.225C508.56 482.097 508.782 482.001 509.031 481.936C509.282 481.87 509.545 481.825 509.819 481.798C510.143 481.764 510.403 481.733 510.601 481.704C510.799 481.673 510.942 481.627 511.032 481.567C511.121 481.506 511.165 481.417 511.165 481.299V481.277C511.165 481.048 511.093 480.871 510.948 480.745C510.806 480.62 510.603 480.557 510.34 480.557C510.063 480.557 509.842 480.619 509.678 480.742C509.514 480.862 509.406 481.014 509.353 481.198L507.927 481.082C508 480.744 508.142 480.452 508.354 480.206C508.566 479.958 508.84 479.767 509.175 479.635C509.513 479.499 509.904 479.432 510.348 479.432C510.656 479.432 510.952 479.468 511.234 479.54C511.519 479.613 511.771 479.725 511.99 479.877C512.212 480.029 512.387 480.224 512.515 480.463C512.643 480.699 512.707 480.983 512.707 481.313V485.062H511.245V484.291H511.202C511.112 484.465 510.993 484.618 510.843 484.75C510.694 484.881 510.514 484.983 510.304 485.058C510.094 485.13 509.852 485.166 509.577 485.166ZM510.018 484.103C510.245 484.103 510.445 484.058 510.619 483.969C510.793 483.877 510.929 483.754 511.028 483.6C511.127 483.445 511.176 483.271 511.176 483.075V482.486C511.128 482.517 511.062 482.546 510.977 482.572C510.895 482.596 510.802 482.619 510.699 482.641C510.595 482.66 510.491 482.678 510.388 482.695C510.284 482.71 510.19 482.723 510.105 482.735C509.924 482.762 509.766 482.804 509.631 482.862C509.496 482.92 509.391 482.998 509.317 483.097C509.242 483.193 509.204 483.314 509.204 483.459C509.204 483.669 509.28 483.829 509.432 483.94C509.587 484.048 509.782 484.103 510.018 484.103ZM513.902 485.062V479.504H515.397V480.474H515.455C515.556 480.129 515.726 479.869 515.965 479.692C516.203 479.514 516.478 479.425 516.79 479.425C516.867 479.425 516.95 479.43 517.039 479.439C517.128 479.449 517.207 479.462 517.274 479.479V480.847C517.202 480.825 517.102 480.806 516.974 480.789C516.846 480.772 516.729 480.763 516.623 480.763C516.396 480.763 516.194 480.813 516.015 480.912C515.839 481.008 515.699 481.143 515.596 481.317C515.494 481.491 515.444 481.691 515.444 481.917V485.062H513.902Z" fill="#FAFAFA"/>
<path d="M577.74 481.899L573.441 486.198C573.352 486.287 573.23 486.338 573.104 486.338C572.977 486.338 572.855 486.287 572.766 486.198C572.676 486.108 572.626 485.986 572.626 485.86C572.626 485.733 572.676 485.611 572.766 485.522L576.249 482.039H566.895C566.768 482.039 566.647 481.989 566.557 481.899C566.468 481.81 566.417 481.688 566.417 481.562C566.417 481.435 566.468 481.313 566.557 481.224C566.647 481.134 566.768 481.084 566.895 481.084H576.249L572.766 477.601C572.676 477.512 572.626 477.39 572.626 477.263C572.626 477.137 572.676 477.015 572.766 476.925C572.855 476.836 572.977 476.786 573.104 476.786C573.23 476.786 573.352 476.836 573.441 476.925L577.74 481.224C577.784 481.268 577.819 481.321 577.843 481.379C577.867 481.437 577.88 481.499 577.88 481.562C577.88 481.624 577.867 481.686 577.843 481.744C577.819 481.802 577.784 481.855 577.74 481.899Z" fill="#FAFAFA"/>
<rect x="142.968" y="63.2061" width="45.8472" height="40.753" rx="5.09413" fill="#F1EFF2"/>
<path d="M173.533 83.5826C173.533 83.7515 173.466 83.9135 173.346 84.0329C173.227 84.1523 173.065 84.2194 172.896 84.2194H160.424L165.068 88.863C165.128 88.9222 165.175 88.9924 165.207 89.0697C165.239 89.147 165.255 89.2298 165.255 89.3135C165.255 89.3972 165.239 89.48 165.207 89.5573C165.175 89.6346 165.128 89.7049 165.068 89.764C165.009 89.8232 164.939 89.8701 164.862 89.9021C164.784 89.9342 164.702 89.9506 164.618 89.9506C164.534 89.9506 164.451 89.9342 164.374 89.9021C164.297 89.8701 164.227 89.8232 164.167 89.764L158.437 84.0331C158.377 83.974 158.33 83.9038 158.298 83.8265C158.266 83.7492 158.25 83.6663 158.25 83.5826C158.25 83.4989 158.266 83.4161 158.298 83.3388C158.33 83.2615 158.377 83.1912 158.437 83.1321L164.167 77.4012C164.287 77.2817 164.449 77.2146 164.618 77.2146C164.787 77.2146 164.949 77.2817 165.068 77.4012C165.188 77.5207 165.255 77.6827 165.255 77.8517C165.255 78.0207 165.188 78.1827 165.068 78.3022L160.424 82.9459H172.896C173.065 82.9459 173.227 83.0129 173.346 83.1324C173.466 83.2518 173.533 83.4137 173.533 83.5826Z" fill="#59595C"/>
<rect x="142.968" y="294.989" width="449.557" height="50.9413" rx="6.36766" fill="#F1EFF2"/>
</g>
<defs>
<filter id="filter0_d_13_278" x="0" y="0" width="675" height="612.597" filterUnits="userSpaceOnUse" color-interpolation-filters="sRGB">
<feFlood flood-opacity="0" result="BackgroundImageFix"/>
<feColorMatrix in="SourceAlpha" type="matrix" values="0 0 0 0 0 0 0 0 0 0 0 0 0 0 0 0 0 0 127 0" result="hardAlpha"/>
<feOffset dy="25"/>
<feGaussianBlur stdDeviation="25"/>
<feComposite in2="hardAlpha" operator="out"/>
<feColorMatrix type="matrix" values="0 0 0 0 0 0 0 0 0 0 0 0 0 0 0 0 0 0 0.25 0"/>
<feBlend mode="normal" in2="BackgroundImageFix" result="effect1_dropShadow_13_278"/>
<feBlend mode="normal" in="SourceGraphic" in2="effect1_dropShadow_13_278" result="shape"/>
</filter>
</defs>
</svg>
