<svg width="303" height="162" viewBox="0 0 303 162" fill="none" xmlns="http://www.w3.org/2000/svg">
    <rect width="161.193" height="161.193" rx="24.179" fill="#2F2F33" />
    <rect x="23.373" y="28.208" width="29.0148" height="84.6265" rx="14.5074" fill="#FAFAFA" />
    <rect x="66.0893" y="28.208" width="29.0148" height="54.8057" rx="14.5074" fill="#FAFAFA" />
    <rect x="108.805" y="28.208" width="29.0148" height="105.582" rx="14.5074" fill="#FAFAFA" />
    <path
        d="M180.028 34.4897H186.487L197.287 64.231L208.06 34.4897H214.545L199.865 74H194.682L180.028 34.4897ZM176.772 34.4897H183.095L184.234 61.8159V74H176.772V34.4897ZM211.452 34.4897H217.802V74H210.339V61.8159L211.452 34.4897ZM238.045 74.5427C235.82 74.5427 233.821 74.1809 232.048 73.4573C230.275 72.7336 228.765 71.7296 227.517 70.4452C226.286 69.1426 225.337 67.632 224.667 65.9134C224.016 64.1767 223.69 62.3134 223.69 60.3234V59.2379C223.69 56.9766 224.016 54.9233 224.667 53.078C225.319 51.2147 226.241 49.6136 227.435 48.2749C228.629 46.9362 230.058 45.905 231.723 45.1814C233.387 44.4578 235.223 44.0959 237.231 44.0959C239.312 44.0959 241.148 44.4487 242.74 45.1542C244.332 45.8417 245.662 46.8186 246.729 48.085C247.796 49.3513 248.601 50.8709 249.144 52.6438C249.687 54.3986 249.958 56.3434 249.958 58.4781V61.4902H226.947V56.5514H242.903V56.0087C242.867 54.869 242.65 53.8288 242.252 52.8881C241.854 51.9292 241.238 51.1694 240.406 50.6086C239.574 50.0297 238.498 49.7403 237.177 49.7403C236.11 49.7403 235.178 49.9754 234.382 50.4458C233.604 50.8981 232.953 51.5493 232.428 52.3996C231.922 53.2318 231.542 54.2268 231.289 55.3846C231.035 56.5424 230.909 57.8268 230.909 59.2379V60.3234C230.909 61.5535 231.071 62.6933 231.397 63.7425C231.741 64.7918 232.238 65.7054 232.89 66.4833C233.559 67.2431 234.355 67.8401 235.278 68.2743C236.218 68.6904 237.286 68.8984 238.48 68.8984C239.981 68.8984 241.338 68.6089 242.55 68.03C243.78 67.433 244.848 66.5556 245.752 65.3978L249.361 69.1426C248.746 70.0472 247.914 70.9155 246.865 71.7477C245.833 72.5799 244.585 73.2583 243.12 73.7829C241.655 74.2895 239.963 74.5427 238.045 74.5427ZM272.237 67.026V44.6387H279.455V74H272.671L272.237 67.026ZM273.16 60.9475L275.385 60.8932C275.385 62.8651 275.168 64.6832 274.734 66.3476C274.299 68.012 273.621 69.4592 272.698 70.6894C271.794 71.9015 270.645 72.8512 269.252 73.5387C267.859 74.208 266.213 74.5427 264.313 74.5427C262.866 74.5427 261.545 74.3437 260.351 73.9457C259.157 73.5296 258.126 72.8874 257.258 72.0191C256.408 71.1326 255.747 70.0019 255.277 68.627C254.807 67.234 254.571 65.5606 254.571 63.6068V44.6387H261.735V63.6611C261.735 64.638 261.844 65.4521 262.061 66.1034C262.296 66.7546 262.613 67.2883 263.011 67.7044C263.427 68.1024 263.906 68.3919 264.449 68.5728C265.01 68.7356 265.607 68.817 266.24 68.817C267.977 68.817 269.342 68.4733 270.337 67.7858C271.351 67.0803 272.074 66.1396 272.508 64.9637C272.943 63.7697 273.16 62.4309 273.16 60.9475Z"
        fill="#2F2F33" />
    <path
        d="M185.103 91.4897V131H176.256V91.4897H185.103ZM200.652 108.151V114.99H182.633V108.151H200.652ZM202.388 91.4897V98.3552H182.633V91.4897H202.388ZM204.451 116.618V116.048C204.451 113.895 204.758 111.914 205.373 110.105C205.989 108.278 206.893 106.695 208.087 105.356C209.281 104.018 210.746 102.977 212.483 102.236C214.22 101.476 216.21 101.096 218.453 101.096C220.733 101.096 222.741 101.476 224.477 102.236C226.232 102.977 227.707 104.018 228.901 105.356C230.095 106.695 230.999 108.278 231.614 110.105C232.229 111.914 232.537 113.895 232.537 116.048V116.618C232.537 118.753 232.229 120.733 231.614 122.561C230.999 124.37 230.095 125.953 228.901 127.309C227.707 128.648 226.241 129.688 224.504 130.43C222.768 131.172 220.769 131.543 218.507 131.543C216.264 131.543 214.265 131.172 212.51 130.43C210.755 129.688 209.281 128.648 208.087 127.309C206.893 125.953 205.989 124.37 205.373 122.561C204.758 120.733 204.451 118.753 204.451 116.618ZM212.944 116.048V116.618C212.944 117.776 213.035 118.861 213.216 119.874C213.415 120.887 213.731 121.774 214.166 122.534C214.6 123.293 215.17 123.89 215.875 124.325C216.599 124.741 217.476 124.949 218.507 124.949C219.539 124.949 220.407 124.741 221.112 124.325C221.818 123.89 222.388 123.293 222.822 122.534C223.256 121.774 223.564 120.887 223.745 119.874C223.944 118.861 224.043 117.776 224.043 116.618V116.048C224.043 114.908 223.944 113.841 223.745 112.846C223.564 111.833 223.256 110.937 222.822 110.159C222.388 109.382 221.809 108.775 221.085 108.341C220.38 107.907 219.502 107.69 218.453 107.69C217.44 107.69 216.581 107.907 215.875 108.341C215.17 108.775 214.6 109.382 214.166 110.159C213.731 110.937 213.415 111.833 213.216 112.846C213.035 113.841 212.944 114.908 212.944 116.048ZM245.481 108.477V131H237.014V101.639H244.965L245.481 108.477ZM254.246 101.422L254.11 109.318C253.748 109.264 253.278 109.219 252.699 109.183C252.12 109.128 251.623 109.101 251.206 109.101C250.121 109.101 249.18 109.237 248.384 109.508C247.606 109.761 246.955 110.141 246.43 110.648C245.924 111.154 245.544 111.788 245.291 112.547C245.038 113.289 244.911 114.148 244.911 115.125L243.31 114.338C243.31 112.403 243.5 110.63 243.88 109.02C244.26 107.41 244.811 106.017 245.535 104.841C246.259 103.647 247.145 102.724 248.194 102.073C249.244 101.422 250.438 101.096 251.776 101.096C252.21 101.096 252.654 101.123 253.106 101.177C253.558 101.232 253.938 101.313 254.246 101.422ZM266.213 107.799V131H257.746V101.639H265.697L266.213 107.799ZM265.127 115.288L262.984 115.342C262.984 113.28 263.228 111.39 263.716 109.671C264.223 107.934 264.955 106.424 265.914 105.139C266.873 103.855 268.058 102.86 269.469 102.154C270.898 101.449 272.545 101.096 274.408 101.096C275.71 101.096 276.895 101.295 277.963 101.693C279.03 102.073 279.944 102.679 280.703 103.511C281.481 104.325 282.078 105.392 282.494 106.713C282.911 108.016 283.119 109.581 283.119 111.408V131H274.652V112.439C274.652 111.136 274.489 110.15 274.164 109.481C273.856 108.794 273.404 108.323 272.807 108.07C272.21 107.817 271.495 107.69 270.663 107.69C269.759 107.69 268.954 107.889 268.248 108.287C267.561 108.667 266.982 109.201 266.511 109.888C266.041 110.576 265.688 111.381 265.453 112.303C265.236 113.226 265.127 114.221 265.127 115.288ZM282.25 114.854L279.564 115.071C279.564 113.081 279.799 111.236 280.269 109.535C280.74 107.835 281.445 106.36 282.386 105.112C283.327 103.846 284.493 102.86 285.886 102.154C287.298 101.449 288.935 101.096 290.798 101.096C292.173 101.096 293.421 101.295 294.543 101.693C295.683 102.091 296.66 102.733 297.474 103.62C298.306 104.506 298.948 105.673 299.4 107.12C299.853 108.549 300.079 110.304 300.079 112.385V131H291.558V112.385C291.558 111.1 291.395 110.123 291.069 109.454C290.762 108.785 290.31 108.323 289.713 108.07C289.134 107.817 288.437 107.69 287.623 107.69C286.719 107.69 285.932 107.88 285.262 108.26C284.593 108.622 284.032 109.128 283.58 109.78C283.128 110.413 282.793 111.163 282.576 112.032C282.359 112.9 282.25 113.841 282.25 114.854Z"
        fill="#685ED9" />
</svg>
    