<svg width="150" height="150" viewBox="0 0 150 150" fill="none" xmlns="http://www.w3.org/2000/svg">
<rect width="150" height="150" rx="20" fill="#685ED9"/>
<path d="M95.4167 51.6665H54.5833C51.3617 51.6665 48.75 54.2782 48.75 57.4998V98.3332C48.75 101.555 51.3617 104.167 54.5833 104.167H95.4167C98.6383 104.167 101.25 101.555 101.25 98.3332V57.4998C101.25 54.2782 98.6383 51.6665 95.4167 51.6665Z" stroke="#FAFAFA" stroke-width="5.83333" stroke-linecap="round" stroke-linejoin="round"/>
<path d="M86.6666 45.8335V57.5002" stroke="#FAFAFA" stroke-width="5.83333" stroke-linecap="round" stroke-linejoin="round"/>
<path d="M63.3334 45.8335V57.5002" stroke="#FAFAFA" stroke-width="5.83333" stroke-linecap="round" stroke-linejoin="round"/>
<path d="M48.75 69.1665H101.25" stroke="#FAFAFA" stroke-width="5.83333" stroke-linecap="round" stroke-linejoin="round"/>
<path d="M63.3334 80.8335H63.3621" stroke="#FAFAFA" stroke-width="5.83333" stroke-linecap="round" stroke-linejoin="round"/>
<path d="M75 80.8335H75.0288" stroke="#FAFAFA" stroke-width="5.83333" stroke-linecap="round" stroke-linejoin="round"/>
<path d="M86.6666 80.8335H86.6954" stroke="#FAFAFA" stroke-width="5.83333" stroke-linecap="round" stroke-linejoin="round"/>
<path d="M63.3334 92.5H63.3621" stroke="#FAFAFA" stroke-width="5.83333" stroke-linecap="round" stroke-linejoin="round"/>
<path d="M75 92.5H75.0288" stroke="#FAFAFA" stroke-width="5.83333" stroke-linecap="round" stroke-linejoin="round"/>
<path d="M86.6666 92.5H86.6954" stroke="#FAFAFA" stroke-width="5.83333" stroke-linecap="round" stroke-linejoin="round"/>
</svg>
