<svg width="150" height="150" viewBox="0 0 150 150" fill="none" xmlns="http://www.w3.org/2000/svg">
<rect width="150" height="150" rx="20" fill="#685ED9"/>
<path d="M74.572 101.742C70.7715 101.742 67.4129 101.088 64.4962 99.7803C61.5972 98.4722 59.3258 96.6692 57.6818 94.3712C56.0379 92.0732 55.2247 89.4571 55.2424 86.5227C55.2247 84.2247 55.6932 82.1124 56.6477 80.1856C57.6199 78.2412 58.9369 76.6237 60.5985 75.3333C62.2601 74.0253 64.1162 73.1944 66.1667 72.8409V72.5227C63.4621 71.8687 61.2967 70.4192 59.6705 68.1742C58.0442 65.9293 57.2399 63.3485 57.2576 60.4318C57.2399 57.6566 57.9735 55.1818 59.4583 53.0076C60.9609 50.8157 63.0202 49.0922 65.6364 47.8371C68.2525 46.5821 71.2311 45.9545 74.572 45.9545C77.8775 45.9545 80.8295 46.5909 83.428 47.8636C86.0442 49.1187 88.1035 50.8422 89.6061 53.0341C91.1086 55.2083 91.8687 57.6742 91.8864 60.4318C91.8687 63.3485 91.0379 65.9293 89.3939 68.1742C87.75 70.4192 85.6111 71.8687 82.9773 72.5227V72.8409C85.0101 73.1944 86.8396 74.0253 88.4659 75.3333C90.1098 76.6237 91.4179 78.2412 92.3901 80.1856C93.38 82.1124 93.8838 84.2247 93.9015 86.5227C93.8838 89.4571 93.053 92.0732 91.4091 94.3712C89.7652 96.6692 87.4848 98.4722 84.5682 99.7803C81.6692 101.088 78.3371 101.742 74.572 101.742ZM74.572 95.0341C76.8169 95.0341 78.7614 94.6629 80.4053 93.9205C82.0492 93.1604 83.322 92.1086 84.2235 90.7652C85.125 89.404 85.5846 87.8131 85.6023 85.9924C85.5846 84.101 85.0896 82.4306 84.1174 80.9811C83.1629 79.5316 81.8636 78.3914 80.2197 77.5606C78.5758 76.7298 76.6932 76.3144 74.572 76.3144C72.4331 76.3144 70.5328 76.7298 68.8712 77.5606C67.2096 78.3914 65.9015 79.5316 64.947 80.9811C63.9924 82.4306 63.524 84.101 63.5417 85.9924C63.524 87.8131 63.9571 89.404 64.8409 90.7652C65.7424 92.1086 67.024 93.1604 68.6856 93.9205C70.3472 94.6629 72.3093 95.0341 74.572 95.0341ZM74.572 69.7652C76.375 69.7652 77.9747 69.4028 79.3712 68.678C80.7677 67.9533 81.8636 66.9457 82.6591 65.6553C83.4722 64.3649 83.8876 62.8535 83.9053 61.1212C83.8876 59.4242 83.4811 57.9394 82.6856 56.6667C81.9078 55.3939 80.8207 54.4129 79.4242 53.7235C78.0278 53.0164 76.4104 52.6629 74.572 52.6629C72.6982 52.6629 71.0543 53.0164 69.6402 53.7235C68.2437 54.4129 67.1566 55.3939 66.3788 56.6667C65.601 57.9394 65.221 59.4242 65.2386 61.1212C65.221 62.8535 65.6098 64.3649 66.4053 65.6553C67.2008 66.9457 68.2967 67.9533 69.6932 68.678C71.1073 69.4028 72.7336 69.7652 74.572 69.7652Z" fill="white"/>
</svg>
